<?xml version="1.0" encoding="UTF-8" standalone="no"?>
<!DOCTYPE svg PUBLIC "-//W3C//DTD SVG 1.1//EN" "http://www.w3.org/Graphics/SVG/1.1/DTD/svg11.dtd">
<svg width="100%" height="100%" viewBox="0 0 168 56" version="1.1" xmlns="http://www.w3.org/2000/svg" xmlns:xlink="http://www.w3.org/1999/xlink" xml:space="preserve" xmlns:serif="http://www.serif.com/" style="fill-rule:evenodd;clip-rule:evenodd;stroke-linejoin:round;stroke-miterlimit:2;">
    <g transform="matrix(1,0,0,1,-126.801,-139.191)">
        <g id="floor" transform="matrix(7,0,0,1,126.801,139.191)">
            <rect x="0" y="0" width="24" height="56" style="fill:none;"/>
            <clipPath id="_clip1">
                <rect x="0" y="0" width="24" height="56"/>
            </clipPath>
            <g clip-path="url(#_clip1)">
                <g transform="matrix(0.142857,0,0,1,-18.1144,-139.191)">
                    <path d="M294.801,195.191L126.801,195.191L126.801,147.191L146.801,147.191C148.134,146.524 149.467,145.857 150.801,145.191L158.801,147.191L250.801,147.191L258.801,145.191L266.801,147.191L294.801,147.191L294.801,195.191Z" style="fill:rgb(248,192,200);"/>
                </g>
                <g transform="matrix(0.142857,0,0,1,-18.1144,-139.191)">
                    <path d="M294.801,195.191L126.801,195.191L126.801,179.191L188.533,179.191C189.867,178.524 191.2,177.857 192.533,177.191L200.533,179.191L276.073,179.191L284.073,177.191L292.073,179.191L294.801,179.191L294.801,195.191Z" style="fill:rgb(255,159,180);"/>
                </g>
            </g>
        </g>
    </g>
</svg>
