<?xml version="1.0" encoding="UTF-8" standalone="no"?><!DOCTYPE svg PUBLIC "-//W3C//DTD SVG 1.1//EN" "http://www.w3.org/Graphics/SVG/1.1/DTD/svg11.dtd"><svg width="100%" height="100%" viewBox="0 0 168 156" version="1.1" xmlns="http://www.w3.org/2000/svg" xmlns:xlink="http://www.w3.org/1999/xlink" xml:space="preserve" xmlns:serif="http://www.serif.com/" style="fill-rule:evenodd;clip-rule:evenodd;stroke-linecap:round;stroke-linejoin:round;stroke-miterlimit:1.5;"><rect id="floor" x="0" y="0" width="168" height="156" style="fill:none;"/><g><path d="M168,56l-168,0l0,-48l17.764,0c1.47,0 2.921,-0.342 4.236,-1c0.098,-0.049 0.197,-0.098 0.295,-0.148c1.1,-0.55 2.361,-0.688 3.554,-0.39c0,0 0,0 0,0c4.085,1.022 8.28,1.538 12.491,1.538c17.635,0 66.929,0 81.533,0c2.741,0 5.472,-0.336 8.131,-1.001c0,0 0,0 0,0c2.624,-0.656 5.368,-0.656 7.992,0c0,0 0,0 0,0c2.659,0.665 5.39,1.001 8.131,1.001c7.787,0 23.873,0 23.873,0l0,48Z" style="fill:#602853;"/><path d="M168,156l-168,0l0,-116l59.496,0c1.471,0 2.921,-0.342 4.236,-1c0.001,0 0.001,0 0.001,0c1.29,-0.645 2.769,-0.808 4.169,-0.458c0.139,0.035 0.282,0.071 0.428,0.107c3.588,0.897 7.273,1.351 10.972,1.351l68.146,0c1.211,0 2.418,-0.149 3.593,-0.442c0,0 0.001,0 0.001,0c4.09,-1.023 8.37,-1.023 12.46,0c0.373,0.093 0.708,0.177 0.984,0.245c0.522,0.131 1.058,0.197 1.596,0.197l1.918,0l0,116Z" style="fill:#3d1934;"/><path d="M12.447,20.612l3.106,2.522" style="fill:none;stroke:#3d1934;stroke-width:1px;"/><path d="M68.104,24.817l-1.103,3.845" style="fill:none;stroke:#3d1934;stroke-width:1px;"/><path d="M140.97,27.509l-3.97,0.491" style="fill:none;stroke:#3d1934;stroke-width:1px;"/><path d="M95,10.873l2,0" style="fill:none;stroke:#3d1934;stroke-width:1px;"/></g></svg>