<?xml version="1.0" encoding="UTF-8" standalone="no"?><!DOCTYPE svg PUBLIC "-//W3C//DTD SVG 1.1//EN" "http://www.w3.org/Graphics/SVG/1.1/DTD/svg11.dtd"><svg width="100%" height="100%" viewBox="0 0 24 56" version="1.1" xmlns="http://www.w3.org/2000/svg" xmlns:xlink="http://www.w3.org/1999/xlink" xml:space="preserve" xmlns:serif="http://www.serif.com/" style="fill-rule:evenodd;clip-rule:evenodd;stroke-linejoin:round;stroke-miterlimit:2;"><rect id="medicine" x="0" y="0" width="24" height="56" style="fill:none;"/><clipPath id="_clip1"><rect x="0" y="0" width="24" height="56"/></clipPath><g clip-path="url(#_clip1)"><path d="M24,8c0,-8 -24,-8 -24,0l0,40c0,8 24,8 24,0l0,-40Z" style="fill:url(#_Linear2);"/><clipPath id="_clip3"><path d="M24,8c0,-8 -24,-8 -24,0l0,40c0,8 24,8 24,0l0,-40Z"/></clipPath><g clip-path="url(#_clip3)"><path d="M24,-28c0,-8 -24,-8 -24,0l0,40c0,8 24,8 24,0l0,-40Z" style="fill:url(#_Linear4);"/><path d="M24,-32c0,-8 -24,-8 -24,0l0,40c0,8 24,8 24,0l0,-40Z" style="fill:url(#_Linear5);"/></g><path d="M14,29.369c0,-0.756 -0.613,-1.369 -1.369,-1.369c-0.408,0 -0.854,0 -1.262,0c-0.756,0 -1.369,0.613 -1.369,1.369c0,3.023 0,10.239 0,13.262c0,0.756 0.613,1.369 1.369,1.369c0.408,0 0.854,0 1.262,0c0.756,0 1.369,-0.613 1.369,-1.369c0,-3.023 0,-10.239 0,-13.262Z" style="fill:url(#_Linear6);"/><path d="M18.631,38c0.756,0 1.369,-0.613 1.369,-1.369c0,-0.408 0,-0.854 0,-1.262c0,-0.756 -0.613,-1.369 -1.369,-1.369c-3.023,0 -10.239,0 -13.262,0c-0.756,0 -1.369,0.613 -1.369,1.369c0,0.408 0,0.854 0,1.262c0,0.756 0.613,1.369 1.369,1.369c3.023,0 10.239,0 13.262,0Z" style="fill:url(#_Linear7);"/></g><defs><linearGradient id="_Linear2" x1="0" y1="0" x2="1" y2="0" gradientUnits="userSpaceOnUse" gradientTransform="matrix(24,0,0,24,2.27374e-13,31)"><stop offset="0" style="stop-color:#977890;stop-opacity:1"/><stop offset="1" style="stop-color:#fff0f3;stop-opacity:1"/></linearGradient><linearGradient id="_Linear4" x1="0" y1="0" x2="1" y2="0" gradientUnits="userSpaceOnUse" gradientTransform="matrix(23.431,0,0,23.431,0.569048,14)"><stop offset="0" style="stop-color:#013608;stop-opacity:1"/><stop offset="1" style="stop-color:#12721f;stop-opacity:1"/></linearGradient><linearGradient id="_Linear5" x1="0" y1="0" x2="1" y2="0" gradientUnits="userSpaceOnUse" gradientTransform="matrix(-27,-16,16,-27,24,14)"><stop offset="0" style="stop-color:#44944f;stop-opacity:1"/><stop offset="1" style="stop-color:#013608;stop-opacity:1"/></linearGradient><linearGradient id="_Linear6" x1="0" y1="0" x2="1" y2="0" gradientUnits="userSpaceOnUse" gradientTransform="matrix(16,-2.84217e-14,2.84217e-14,16,4,36)"><stop offset="0" style="stop-color:#0c4814;stop-opacity:1"/><stop offset="1" style="stop-color:#3b8846;stop-opacity:1"/></linearGradient><linearGradient id="_Linear7" x1="0" y1="0" x2="1" y2="0" gradientUnits="userSpaceOnUse" gradientTransform="matrix(16,-2.84217e-14,2.84217e-14,16,4,36)"><stop offset="0" style="stop-color:#0c4814;stop-opacity:1"/><stop offset="1" style="stop-color:#3b8846;stop-opacity:1"/></linearGradient></defs></svg>