<?xml version="1.0" encoding="UTF-8" standalone="no"?>
<!DOCTYPE svg PUBLIC "-//W3C//DTD SVG 1.1//EN" "http://www.w3.org/Graphics/SVG/1.1/DTD/svg11.dtd">
<svg width="100%" height="100%" viewBox="0 0 256 56" version="1.1" xmlns="http://www.w3.org/2000/svg" xmlns:xlink="http://www.w3.org/1999/xlink" xml:space="preserve" xmlns:serif="http://www.serif.com/" style="fill-rule:evenodd;clip-rule:evenodd;stroke-linejoin:round;stroke-miterlimit:2;">
    <g id="player" transform="matrix(10.6667,0,0,1,0,0)">
        <rect x="0" y="0" width="24" height="56" style="fill:none;"/>
        <g transform="matrix(0.00958083,0,0,0.102196,3.12574,-21.9122)">
            <path d="M471.8,320.8C474.5,318.6 478.9,320 480.1,323.9L481.4,330.9L484.3,326.8L485.3,318.5L490.6,314.6L490.6,310.1L502.3,308L502.6,304.1L497.5,292.4L477.4,291.9L467.9,296L463.6,311.4L462.8,316.4L473,339.1L477.2,330.4C472.9,329.3 469.1,323 471.8,320.8Z" style="fill:rgb(61,25,52);fill-rule:nonzero;"/>
        </g>
        <g transform="matrix(0.00958083,0,0,0.102196,3.12574,-21.9122)">
            <path d="M502.2,308L490.5,310.1L490.5,314.6L485.2,318.5L484.2,326.8L481.3,330.9L480,323.9C478.8,320 474.4,318.6 471.7,320.8C469,323 472.9,329.2 477.1,330.3L472.9,339L463.2,356.9L486.4,360.9L489.9,343.7L496,343.1L499,331.1L502.8,330.3L501,321.5L502.2,308Z" style="fill:rgb(236,214,182);fill-rule:nonzero;"/>
        </g>
        <g transform="matrix(0.00958083,0,0,0.102196,3.12574,-21.9122)">
            <path d="M506.5,315.8L458.9,316.4C457.3,316.4 456,315.1 455.9,313.5L455.9,312C455.9,310.4 457.2,309.1 458.8,309L506.4,308.4C508,308.4 509.3,309.7 509.4,311.3L509.4,312.8C509.4,314.4 508.1,315.7 506.5,315.8Z" style="fill:rgb(82,34,71);fill-rule:nonzero;"/>
        </g>
        <g transform="matrix(0.00958083,0,0,0.102196,3.12574,-21.9122)">
            <path d="M486.5,286.1L478.2,286.2C469.4,286.3 462.3,293.6 462.4,302.4L462.5,309L502.9,308.5L502.8,301.9C502.6,293.1 495.3,286 486.5,286.1Z" style="fill:rgb(96,40,83);fill-rule:nonzero;"/>
        </g>
        <g transform="matrix(0.00958083,0,0,0.102196,3.12574,-21.9122)">
            <path d="M489.9,343.8L477,344.9C481.1,348.3 489.6,345.4 489.6,345.4L489.9,343.8Z" style="fill:rgb(226,194,144);fill-rule:nonzero;"/>
        </g>
        <g transform="matrix(0.00958083,0,0,0.102196,3.12574,-21.9122)">
            <ellipse cx="496.1" cy="322.6" rx="4.1" ry="6.2" style="fill:rgb(44,18,38);"/>
        </g>
        <g transform="matrix(0.00958083,0,0,0.102196,3.12574,-21.9122)">
            <ellipse cx="496.3" cy="322.6" rx="3.4" ry="5.7" style="fill:rgb(240,56,107);"/>
        </g>
        <g transform="matrix(0.00958083,0,0,0.102196,3.12574,-21.9122)">
            <path d="M480,323.7L492.3,322.2L492.4,323.9L480.1,324.4L480,323.7Z" style="fill:rgb(44,18,38);fill-rule:nonzero;"/>
        </g>
        <g transform="matrix(0.00958083,0,0,0.102196,3.12574,-21.9122)">
            <path d="M499.9,321.3L501.3,321.2L501.5,322.3L500,323.1L499.9,321.3Z" style="fill:rgb(44,18,38);fill-rule:nonzero;"/>
        </g>
        <g transform="matrix(0.00958083,0,0,0.102196,3.12574,-21.9122)">
            <path d="M492.4,497.7L512.2,599.1L420.2,629.7L420.2,611.8L480,580.6L454.1,497.7L492.4,497.7Z" style="fill:rgb(190,159,113);fill-rule:nonzero;"/>
        </g>
        <g transform="matrix(0.00958083,0,0,0.102196,3.12574,-21.9122)">
            <path d="M442.5,482.3L447.3,589.3L429,683.8L452.3,683.8L475.9,589.9L492.4,482.3L442.5,482.3Z" style="fill:rgb(226,194,144);fill-rule:nonzero;"/>
        </g>
        <g transform="matrix(0.00958083,0,0,0.102196,3.12574,-21.9122)">
            <path d="M452.3,683.8L483.2,699.2L422.9,699.8L429.6,683.8L452.3,683.8Z" style="fill:rgb(88,89,91);fill-rule:nonzero;"/>
        </g>
        <g transform="matrix(0.00958083,0,0,0.102196,3.12574,-21.9122)">
            <path d="M483.2,699.2L422.9,699.8L422.9,705.5L483.2,705L483.2,699.2Z" style="fill:rgb(241,242,242);fill-rule:nonzero;"/>
        </g>
        <g transform="matrix(0.00958083,0,0,0.102196,3.12574,-21.9122)">
            <path d="M420.2,629.7L399.5,663.6L405,603.5L420.2,611.8L420.2,629.7Z" style="fill:rgb(88,89,91);fill-rule:nonzero;"/>
        </g>
        <g transform="matrix(0.00958083,0,0,0.102196,3.12574,-21.9122)">
            <path d="M399.5,663.6L405,603.5L399.3,602.9L393.7,663L399.5,663.6Z" style="fill:rgb(241,242,242);fill-rule:nonzero;"/>
        </g>
        <g transform="matrix(0.00958083,0,0,0.102196,3.12574,-21.9122)">
            <path d="M493.3,359.6C497.6,360.5 500.6,364.4 500.3,368.9C498.3,394 507.8,428.6 529.6,450.2L520.4,454.2C496.2,422.1 494.7,383.5 494.9,370.4C494.9,368.2 493.3,366.4 491.1,366.1L493.3,359.6Z" style="fill:rgb(61,25,52);fill-rule:nonzero;"/>
        </g>
        <g transform="matrix(0.00958083,0,0,0.102196,3.12574,-21.9122)">
            <path d="M493.3,359.6L464.9,354.7L435.5,349.1C431.2,360.1 440,363 441.5,366.6C443.1,370.2 438.9,378.7 441.1,382.2C443.3,385.7 451.1,388.2 449.7,392.9C448.3,397.6 436.4,447.8 440.6,497.7L500.7,497.7C489.1,459.7 485.6,378.7 493.3,359.6Z" style="fill:rgb(61,25,52);fill-rule:nonzero;"/>
        </g>
        <g transform="matrix(0.00958083,0,0,0.102196,3.12574,-21.9122)">
            <path d="M461.8,496.7L466.9,526.7L465.8,541.2L452.3,553.6C472.4,558.6 484,543.6 477.4,525.6L476.1,496L461.8,496.7Z" style="fill:rgb(236,214,182);fill-rule:nonzero;"/>
        </g>
        <g transform="matrix(0.00958083,0,0,0.102196,3.12574,-21.9122)">
            <path d="M474,452.2C475.7,445.2 488.7,372.3 469.7,373C452.1,373.6 455.6,433 454.2,449.6C452.9,465.3 460.8,507.1 462.6,519.8L479.5,518.2C479.3,507.2 472.6,458.3 474,452.2Z" style="fill:rgb(96,40,83);fill-rule:nonzero;"/>
        </g>
        <g transform="matrix(0.00958083,0,0,0.102196,8.45119,-21.9122)">
            <path d="M1138.7,482.3L1143.5,589.3L1125.2,683.8L1148.6,683.8L1172.2,589.9L1188.6,482.3L1138.7,482.3Z" style="fill:rgb(190,159,113);fill-rule:nonzero;"/>
        </g>
        <g transform="matrix(0.00958083,0,0,0.102196,8.45119,-21.9122)">
            <path d="M1148.6,683.8L1179.5,699.2L1119.2,699.8L1125.9,683.8L1148.6,683.8Z" style="fill:rgb(88,89,91);fill-rule:nonzero;"/>
        </g>
        <g transform="matrix(0.00958083,0,0,0.102196,8.45119,-21.9122)">
            <path d="M1179.5,699.2L1119.2,699.8L1119.2,705.5L1179.5,705L1179.5,699.2Z" style="fill:rgb(241,242,242);fill-rule:nonzero;"/>
        </g>
        <g transform="matrix(0.00958083,0,0,0.102196,8.45119,-21.9122)">
            <path d="M1168,320.8C1170.7,318.6 1175.1,320 1176.3,323.9L1177.6,330.9L1180.5,326.8L1181.5,318.5L1186.8,314.6L1186.8,310.1L1198.5,308L1198.8,304.1L1193.7,292.4L1173.6,291.9L1164.1,296L1159.8,311.4L1159,316.4L1169.2,339.1L1173.4,330.4C1169.2,329.3 1165.3,323 1168,320.8Z" style="fill:rgb(61,25,52);fill-rule:nonzero;"/>
        </g>
        <g transform="matrix(0.00958083,0,0,0.102196,8.45119,-21.9122)">
            <path d="M1198.5,308L1186.8,310.1L1186.8,314.6L1181.5,318.5L1180.5,326.8L1177.6,330.9L1176.3,323.9C1175.1,320 1170.7,318.6 1168,320.8C1165.3,323 1169.2,329.2 1173.4,330.3L1169.2,339L1159.5,356.9L1182.7,360.9L1186.2,343.7L1192.3,343.1L1195.3,331.1L1199.1,330.3L1197.3,321.5L1198.5,308Z" style="fill:rgb(236,214,182);fill-rule:nonzero;"/>
        </g>
        <g transform="matrix(0.00958083,0,0,0.102196,8.45119,-21.9122)">
            <path d="M1202.8,315.8L1155.2,316.4C1153.6,316.4 1152.3,315.1 1152.2,313.5L1152.2,312C1152.2,310.4 1153.5,309.1 1155.1,309L1202.7,308.4C1204.3,308.4 1205.6,309.7 1205.7,311.3L1205.7,312.8C1205.7,314.4 1204.4,315.7 1202.8,315.8Z" style="fill:rgb(82,34,71);fill-rule:nonzero;"/>
        </g>
        <g transform="matrix(0.00958083,0,0,0.102196,8.45119,-21.9122)">
            <path d="M1182.7,286.1L1174.4,286.2C1165.6,286.3 1158.5,293.6 1158.6,302.4L1158.7,309L1199.1,308.5L1199,301.9C1198.9,293.1 1191.6,286 1182.7,286.1Z" style="fill:rgb(96,40,83);fill-rule:nonzero;"/>
        </g>
        <g transform="matrix(0.00958083,0,0,0.102196,8.45119,-21.9122)">
            <path d="M1186.2,343.8L1173.3,344.9C1177.4,348.3 1185.9,345.4 1185.9,345.4L1186.2,343.8Z" style="fill:rgb(226,194,144);fill-rule:nonzero;"/>
        </g>
        <g transform="matrix(0.00958083,0,0,0.102196,8.45119,-21.9122)">
            <ellipse cx="1192.4" cy="322.6" rx="4.1" ry="6.2" style="fill:rgb(44,18,38);"/>
        </g>
        <g transform="matrix(0.00958083,0,0,0.102196,8.45119,-21.9122)">
            <ellipse cx="1192.6" cy="322.6" rx="3.4" ry="5.7" style="fill:rgb(240,56,107);"/>
        </g>
        <g transform="matrix(0.00958083,0,0,0.102196,8.45119,-21.9122)">
            <path d="M1176.2,323.7L1188.5,322.2L1188.7,323.9L1176.4,324.4L1176.2,323.7Z" style="fill:rgb(44,18,38);fill-rule:nonzero;"/>
        </g>
        <g transform="matrix(0.00958083,0,0,0.102196,8.45119,-21.9122)">
            <path d="M1196.2,321.3L1197.6,321.2L1197.8,322.3L1196.3,323.1L1196.2,321.3Z" style="fill:rgb(44,18,38);fill-rule:nonzero;"/>
        </g>
        <g transform="matrix(0.00958083,0,0,0.102196,8.45119,-21.9122)">
            <path d="M1191.1,497.7L1211.8,595.4L1116.5,629.7L1116.5,611.8L1176.2,580.6L1139.4,497.7L1191.1,497.7Z" style="fill:rgb(226,194,144);fill-rule:nonzero;"/>
        </g>
        <g transform="matrix(0.00958083,0,0,0.102196,8.45119,-21.9122)">
            <path d="M1116.5,629.7L1095.7,663.6L1101.2,603.5L1116.5,611.8L1116.5,629.7Z" style="fill:rgb(88,89,91);fill-rule:nonzero;"/>
        </g>
        <g transform="matrix(0.00958083,0,0,0.102196,8.45119,-21.9122)">
            <path d="M1095.7,663.6L1101.2,603.5L1095.6,602.9L1090,663L1095.7,663.6Z" style="fill:rgb(241,242,242);fill-rule:nonzero;"/>
        </g>
        <g transform="matrix(0.00958083,0,0,0.102196,8.45119,-21.9122)">
            <path d="M1189.5,359.6C1193.8,360.5 1196.8,364.4 1196.5,368.9C1194.5,394 1204,428.6 1225.8,450.2L1216.6,454.2C1192.4,422.1 1190.9,383.5 1191.1,370.4C1191.1,368.2 1189.5,366.4 1187.3,366.1L1189.5,359.6Z" style="fill:rgb(61,25,52);fill-rule:nonzero;"/>
        </g>
        <g transform="matrix(0.00958083,0,0,0.102196,8.45119,-21.9122)">
            <path d="M1189.5,359.6L1161.1,354.7L1131.7,349.1C1127.4,360.1 1136.2,363 1137.7,366.6C1139.3,370.2 1135.1,378.7 1137.3,382.2C1139.5,385.7 1147.3,388.2 1145.9,392.9C1144.5,397.6 1132.6,447.8 1136.8,497.7L1196.9,497.7C1185.4,459.7 1181.8,378.7 1189.5,359.6Z" style="fill:rgb(61,25,52);fill-rule:nonzero;"/>
        </g>
        <g transform="matrix(0.00958083,0,0,0.102196,8.45119,-21.9122)">
            <path d="M1158,496.7L1163.1,526.7L1162,541.2L1148.5,553.6C1168.6,558.6 1180.2,543.6 1173.6,525.6L1172.3,496L1158,496.7Z" style="fill:rgb(236,214,182);fill-rule:nonzero;"/>
        </g>
        <g transform="matrix(0.00958083,0,0,0.102196,8.45119,-21.9122)">
            <path d="M1170.3,452.2C1172,445.2 1185,372.3 1166,373C1148.4,373.6 1151.9,433 1150.5,449.6C1149.2,465.3 1157.1,507.1 1158.9,519.8L1175.8,518.2C1175.5,507.2 1168.8,458.3 1170.3,452.2Z" style="fill:rgb(96,40,83);fill-rule:nonzero;"/>
        </g>
        <g transform="matrix(0.00958083,0,0,0.102196,4.51172,-21.9122)">
            <path d="M584,438.2C588,432.3 636.7,368.3 618.7,362.4C602,356.9 573.5,413.8 566.4,428.9C559.7,443.2 590.9,496.4 590.9,496.4L606.6,486.6C606.6,486.6 586.8,447.9 584,438.2Z" style="fill:rgb(96,40,83);fill-rule:nonzero;"/>
        </g>
        <g transform="matrix(0.00958083,0,0,0.102196,4.51172,-21.9122)">
            <path d="M629.9,303.7C632.6,301.5 637,302.9 638.2,306.8L639.5,313.8L642.4,309.7L643.4,301.4L648.7,297.5L648.7,293L660.4,290.9L660.7,287L655.6,275.3L635.5,274.8L626,278.9L621.7,294.3L620.9,299.3L631.1,322L635.3,313.3C631.1,312.1 627.2,305.9 629.9,303.7Z" style="fill:rgb(61,25,52);fill-rule:nonzero;"/>
        </g>
        <g transform="matrix(0.00958083,0,0,0.102196,4.51172,-21.9122)">
            <path d="M660.4,290.8L648.7,292.9L648.7,297.4L643.4,301.3L642.4,309.6L639.5,313.7L638.2,306.7C637,302.8 632.6,301.4 629.9,303.6C627.2,305.8 631.1,312 635.3,313.1L631.1,321.8L621.4,339.7L644.6,343.7L648.1,326.5L654.2,325.9L657.2,313.9L661,313.1L659.2,304.3L660.4,290.8Z" style="fill:rgb(236,214,182);fill-rule:nonzero;"/>
        </g>
        <g transform="matrix(0.00958083,0,0,0.102196,4.51172,-21.9122)">
            <path d="M664.7,298.6L617.1,299.2C615.5,299.2 614.2,297.9 614.1,296.3L614.1,294.8C614.1,293.2 615.4,291.9 617,291.8L664.6,291.2C666.2,291.2 667.5,292.5 667.6,294.1L667.6,295.6C667.6,297.3 666.3,298.6 664.7,298.6Z" style="fill:rgb(82,34,71);fill-rule:nonzero;"/>
        </g>
        <g transform="matrix(0.00958083,0,0,0.102196,4.51172,-21.9122)">
            <path d="M644.6,268.9L636.3,269C627.5,269.1 620.4,276.4 620.5,285.2L620.6,291.8L661,291.3L660.9,284.7C660.8,275.9 653.5,268.8 644.6,268.9Z" style="fill:rgb(96,40,83);fill-rule:nonzero;"/>
        </g>
        <g transform="matrix(0.00958083,0,0,0.102196,4.51172,-21.9122)">
            <path d="M648.1,326.6L635.2,327.7C639.3,331.1 647.8,328.2 647.8,328.2L648.1,326.6Z" style="fill:rgb(226,194,144);fill-rule:nonzero;"/>
        </g>
        <g transform="matrix(0.00958083,0,0,0.102196,4.51172,-21.9122)">
            <ellipse cx="654.3" cy="305.4" rx="4.1" ry="6.2" style="fill:rgb(44,18,38);"/>
        </g>
        <g transform="matrix(0.00958083,0,0,0.102196,4.51172,-21.9122)">
            <ellipse cx="654.5" cy="305.4" rx="3.4" ry="5.7" style="fill:rgb(240,56,107);"/>
        </g>
        <g transform="matrix(0.00958083,0,0,0.102196,4.51172,-21.9122)">
            <path d="M638.1,306.5L650.4,305L650.6,306.8L638.3,307.2L638.1,306.5Z" style="fill:rgb(44,18,38);fill-rule:nonzero;"/>
        </g>
        <g transform="matrix(0.00958083,0,0,0.102196,4.51172,-21.9122)">
            <path d="M658.1,304.2L659.5,304L659.7,305.1L658.2,305.9L658.1,304.2Z" style="fill:rgb(44,18,38);fill-rule:nonzero;"/>
        </g>
        <g transform="matrix(0.00958083,0,0,0.102196,4.51172,-21.9122)">
            <path d="M644.4,480.5L682.6,565.4L623.5,630.2L610.1,618.3L651.4,560.7L598.1,480.5L644.4,480.5Z" style="fill:rgb(190,159,113);fill-rule:nonzero;"/>
        </g>
        <g transform="matrix(0.00958083,0,0,0.102196,4.51172,-21.9122)">
            <path d="M592.3,465.1L559.3,575.5L521.2,651.6L539.2,665.6L588.3,586.4L642.2,465.1L592.3,465.1Z" style="fill:rgb(226,194,144);fill-rule:nonzero;"/>
        </g>
        <g transform="matrix(0.00958083,0,0,0.102196,4.51172,-21.9122)">
            <path d="M539.2,665.6L554,696.8L506.1,660.1L521.2,651.6L539.2,665.6Z" style="fill:rgb(88,89,91);fill-rule:nonzero;"/>
        </g>
        <g transform="matrix(0.00958083,0,0,0.102196,4.51172,-21.9122)">
            <path d="M554,696.8L506.1,660.1L502.6,664.6L550.4,701.4L554,696.8Z" style="fill:rgb(241,242,242);fill-rule:nonzero;"/>
        </g>
        <g transform="matrix(0.00958083,0,0,0.102196,4.51172,-21.9122)">
            <path d="M623.5,630.2L635.1,668.2L593.7,624.2L610.1,618.3L623.5,630.2Z" style="fill:rgb(88,89,91);fill-rule:nonzero;"/>
        </g>
        <g transform="matrix(0.00958083,0,0,0.102196,4.51172,-21.9122)">
            <path d="M635.1,668.2L593.7,624.2L589.5,628.1L630.8,672.1L635.1,668.2Z" style="fill:rgb(241,242,242);fill-rule:nonzero;"/>
        </g>
        <g transform="matrix(0.00958083,0,0,0.102196,4.51172,-21.9122)">
            <path d="M651.4,342.4C655.7,343.3 658.7,347.2 658.4,351.7C656.4,376.8 665.9,411.4 687.7,433L678.5,437C654.3,404.9 652.8,366.3 653,353.2C653,351 651.4,349.2 649.2,348.9L651.4,342.4Z" style="fill:rgb(61,25,52);fill-rule:nonzero;"/>
        </g>
        <g transform="matrix(0.00958083,0,0,0.102196,4.51172,-21.9122)">
            <path d="M651.4,342.4L623,337.5L593.6,331.9C589.3,342.9 598.1,345.8 599.6,349.4C601.2,353 597,361.5 599.2,365C601.4,368.5 609.2,371 607.8,375.7C606.4,380.4 596,418.4 584.2,480.5L644.3,480.5C641.6,442.8 643.7,361.5 651.4,342.4Z" style="fill:rgb(61,25,52);fill-rule:nonzero;"/>
        </g>
        <g transform="matrix(0.00958083,0,0,0.102196,4.51172,-21.9122)">
            <path d="M659.6,482.2L674.4,508.8L678.2,522.8L669.6,539C690.2,537 696.2,519 684,504.3L673,476.8L659.6,482.2Z" style="fill:rgb(236,214,182);fill-rule:nonzero;"/>
        </g>
        <g transform="matrix(0.00958083,0,0,0.102196,4.51172,-21.9122)">
            <path d="M656.4,436.2C655.7,429.1 643.8,355.9 626.1,362.9C609.7,369.3 632.7,424.2 636.9,440.3C640.9,455.6 662.3,492.3 668.2,503.8L683.6,496.7C679.6,486.3 657.1,442.4 656.4,436.2Z" style="fill:rgb(96,40,83);fill-rule:nonzero;"/>
        </g>
        <g transform="matrix(0.00958083,0,0,0.102196,9.90818,-21.9122)">
            <path d="M1358.4,482.2L1373.2,508.8L1377,522.8L1368.4,539C1389,537 1395,519 1382.8,504.3L1371.8,476.8L1358.4,482.2Z" style="fill:rgb(236,214,182);fill-rule:nonzero;"/>
        </g>
        <g transform="matrix(0.00958083,0,0,0.102196,9.90818,-21.9122)">
            <path d="M1355.2,436.2C1354.5,429.1 1342.6,355.9 1324.9,362.9C1308.5,369.3 1331.5,424.2 1335.7,440.3C1339.7,455.6 1361.1,492.3 1367,503.8L1382.4,496.7C1378.4,486.3 1355.9,442.4 1355.2,436.2Z" style="fill:rgb(96,40,83);fill-rule:nonzero;"/>
        </g>
        <g transform="matrix(0.00958083,0,0,0.102196,9.90818,-21.9122)">
            <path d="M1328.7,303.7C1331.4,301.5 1335.8,302.9 1337,306.8L1338.3,313.8L1341.2,309.7L1342.2,301.4L1347.5,297.5L1347.5,293L1359.2,290.9L1359.5,287L1354.4,275.3L1334.3,274.8L1324.8,278.9L1320.5,294.3L1319.7,299.3L1329.9,322L1334.1,313.3C1329.9,312.1 1326,305.9 1328.7,303.7Z" style="fill:rgb(61,25,52);fill-rule:nonzero;"/>
        </g>
        <g transform="matrix(0.00958083,0,0,0.102196,9.90818,-21.9122)">
            <path d="M1359.2,290.8L1347.5,292.9L1347.5,297.4L1342.2,301.3L1341.2,309.6L1338.3,313.7L1337,306.7C1335.8,302.8 1331.4,301.4 1328.7,303.6C1326,305.8 1329.9,312 1334.1,313.1L1329.9,321.8L1320.2,339.7L1343.4,343.7L1346.9,326.5L1353,325.9L1356,313.9L1359.8,313.1L1358,304.3L1359.2,290.8Z" style="fill:rgb(236,214,182);fill-rule:nonzero;"/>
        </g>
        <g transform="matrix(0.00958083,0,0,0.102196,9.90818,-21.9122)">
            <path d="M1363.5,298.6L1315.9,299.2C1314.3,299.2 1313,297.9 1312.9,296.3L1312.9,294.8C1312.9,293.2 1314.2,291.9 1315.8,291.8L1363.4,291.2C1365,291.2 1366.3,292.5 1366.4,294.1L1366.4,295.6C1366.4,297.3 1365.1,298.6 1363.5,298.6Z" style="fill:rgb(82,34,71);fill-rule:nonzero;"/>
        </g>
        <g transform="matrix(0.00958083,0,0,0.102196,9.90818,-21.9122)">
            <path d="M1343.4,268.9L1335.1,269C1326.3,269.1 1319.2,276.4 1319.3,285.2L1319.4,291.8L1359.8,291.3L1359.7,284.7C1359.6,275.9 1352.3,268.8 1343.4,268.9Z" style="fill:rgb(96,40,83);fill-rule:nonzero;"/>
        </g>
        <g transform="matrix(0.00958083,0,0,0.102196,9.90818,-21.9122)">
            <path d="M1346.9,326.6L1334,327.7C1338.1,331.1 1346.6,328.2 1346.6,328.2L1346.9,326.6Z" style="fill:rgb(226,194,144);fill-rule:nonzero;"/>
        </g>
        <g transform="matrix(0.00958083,0,0,0.102196,9.90818,-21.9122)">
            <ellipse cx="1353.1" cy="305.4" rx="4.1" ry="6.2" style="fill:rgb(44,18,38);"/>
        </g>
        <g transform="matrix(0.00958083,0,0,0.102196,9.90818,-21.9122)">
            <ellipse cx="1353.3" cy="305.4" rx="3.4" ry="5.7" style="fill:rgb(240,56,107);"/>
        </g>
        <g transform="matrix(0.00958083,0,0,0.102196,9.90818,-21.9122)">
            <path d="M1336.9,306.5L1349.2,305L1349.4,306.8L1337.1,307.2L1336.9,306.5Z" style="fill:rgb(44,18,38);fill-rule:nonzero;"/>
        </g>
        <g transform="matrix(0.00958083,0,0,0.102196,9.90818,-21.9122)">
            <path d="M1356.9,304.2L1358.3,304L1358.5,305.1L1357,305.9L1356.9,304.2Z" style="fill:rgb(44,18,38);fill-rule:nonzero;"/>
        </g>
        <g transform="matrix(0.00958083,0,0,0.102196,9.90818,-21.9122)">
            <path d="M1291.1,465.1L1258.1,575.5L1220,651.6L1238,665.6L1287.1,586.4L1341,465.1L1291.1,465.1Z" style="fill:rgb(190,159,113);fill-rule:nonzero;"/>
        </g>
        <g transform="matrix(0.00958083,0,0,0.102196,9.90818,-21.9122)">
            <path d="M1238,665.6L1252.8,696.8L1204.9,660.1L1220,651.6L1238,665.6Z" style="fill:rgb(61,25,52);fill-rule:nonzero;"/>
        </g>
        <g transform="matrix(0.00958083,0,0,0.102196,9.90818,-21.9122)">
            <path d="M1252.8,696.8L1204.9,660.1L1201.4,664.6L1249.2,701.4L1252.8,696.8Z" style="fill:rgb(241,242,242);fill-rule:nonzero;"/>
        </g>
        <g transform="matrix(0.00958083,0,0,0.102196,9.90818,-21.9122)">
            <path d="M1350.2,342.4C1354.5,343.3 1357.5,347.2 1357.2,351.7C1355.2,376.8 1364.7,411.4 1386.5,433L1377.3,437C1353.1,404.9 1351.6,366.3 1351.8,353.2C1351.8,351 1350.2,349.2 1348,348.9L1350.2,342.4Z" style="fill:rgb(61,25,52);fill-rule:nonzero;"/>
        </g>
        <g transform="matrix(0.00958083,0,0,0.102196,9.90818,-21.9122)">
            <path d="M1350.2,342.4L1321.8,337.5L1292.4,331.9C1288.1,342.9 1296.9,345.8 1298.4,349.4C1300,353 1295.8,361.5 1298,365C1300.2,368.5 1308,371 1306.6,375.7C1305.2,380.4 1294.8,418.4 1283,480.5L1343.1,480.5C1340.4,442.8 1342.5,361.5 1350.2,342.4Z" style="fill:rgb(61,25,52);fill-rule:nonzero;"/>
        </g>
        <g transform="matrix(0.00958083,0,0,0.102196,9.90818,-21.9122)">
            <path d="M1343.2,480.5L1381.4,565.4L1322.3,630.2L1308.9,618.3L1350.2,560.7L1283,480.5L1343.2,480.5Z" style="fill:rgb(226,194,144);fill-rule:nonzero;"/>
        </g>
        <g transform="matrix(0.00958083,0,0,0.102196,9.90818,-21.9122)">
            <path d="M1322.3,630.2L1333.9,668.2L1292.5,624.2L1308.9,618.3L1322.3,630.2Z" style="fill:rgb(61,25,52);fill-rule:nonzero;"/>
        </g>
        <g transform="matrix(0.00958083,0,0,0.102196,9.90818,-21.9122)">
            <path d="M1333.9,668.2L1292.5,624.2L1288.3,628.1L1329.6,672.1L1333.9,668.2Z" style="fill:rgb(241,242,242);fill-rule:nonzero;"/>
        </g>
        <g transform="matrix(0.00958083,0,0,0.102196,9.90818,-21.9122)">
            <path d="M1280.5,475.4L1296.8,501.1L1301.4,514.9L1293.7,531.5C1314.2,528.4 1319.2,510.1 1306.2,496L1293.7,469.2L1280.5,475.4Z" style="fill:rgb(236,214,182);fill-rule:nonzero;"/>
        </g>
        <g transform="matrix(0.00958083,0,0,0.102196,9.90818,-21.9122)">
            <path d="M1282.8,438.2C1286.8,432.3 1335.5,368.3 1317.5,362.4C1300.8,356.9 1272.3,413.8 1265.2,428.9C1258.5,443.2 1289.7,496.4 1289.7,496.4L1305.4,486.6C1305.4,486.6 1285.6,447.9 1282.8,438.2Z" style="fill:rgb(96,40,83);fill-rule:nonzero;"/>
        </g>
        <g transform="matrix(0.00958083,0,0,0.102196,5.83875,-21.9122)">
            <path d="M744.5,479.1L734.7,507.9L726.8,520.1L709,524.6C724.3,538.6 741.7,531 744.4,512L757.4,485.4L744.5,479.1Z" style="fill:rgb(236,214,182);fill-rule:nonzero;"/>
        </g>
        <g transform="matrix(0.00958083,0,0,0.102196,5.83875,-21.9122)">
            <path d="M776.5,445.8C781.3,440.5 842.1,392.9 825,384.4C809.2,376.5 769.5,420.2 760.4,434.1C751.7,447.3 738.8,487.8 734.3,499.8L749.9,506.4C754.8,496.6 772.3,450.5 776.5,445.8Z" style="fill:rgb(96,40,83);fill-rule:nonzero;"/>
        </g>
        <g transform="matrix(0.00958083,0,0,0.102196,5.83875,-21.9122)">
            <path d="M814.2,336.2C816.9,334 821.3,335.4 822.5,339.3L823.8,346.3L826.7,342.2L827.7,333.9L833,330L833,325.5L844.7,323.4L845,319.5L839.9,307.8L819.8,307.3L810.3,311.4L806,326.8L805.2,331.8L815.4,354.5L819.6,345.8C815.4,344.6 811.5,338.4 814.2,336.2Z" style="fill:rgb(61,25,52);fill-rule:nonzero;"/>
        </g>
        <g transform="matrix(0.00958083,0,0,0.102196,5.83875,-21.9122)">
            <path d="M844.7,323.4L833,325.5L833,330L827.7,333.9L826.7,342.2L823.8,346.3L822.5,339.3C821.3,335.4 816.9,334 814.2,336.2C811.5,338.4 815.4,344.6 819.6,345.7L815.4,354.4L805.7,372.3L828.9,376.3L832.4,359.1L838.5,358.5L841.5,346.5L845.3,345.7L843.5,336.9L844.7,323.4Z" style="fill:rgb(236,214,182);fill-rule:nonzero;"/>
        </g>
        <g transform="matrix(0.00958083,0,0,0.102196,5.83875,-21.9122)">
            <path d="M849,331.2L801.4,331.8C799.8,331.8 798.5,330.5 798.4,328.9L798.4,327.4C798.4,325.8 799.7,324.5 801.3,324.4L848.9,323.8C850.5,323.8 851.8,325.1 851.9,326.7L851.9,328.2C851.9,329.8 850.6,331.1 849,331.2Z" style="fill:rgb(82,34,71);fill-rule:nonzero;"/>
        </g>
        <g transform="matrix(0.00958083,0,0,0.102196,5.83875,-21.9122)">
            <path d="M828.9,301.5L820.6,301.6C811.8,301.7 804.7,309 804.8,317.8L804.9,324.4L845.3,323.9L845.2,317.3C845,308.4 837.8,301.4 828.9,301.5Z" style="fill:rgb(96,40,83);fill-rule:nonzero;"/>
        </g>
        <g transform="matrix(0.00958083,0,0,0.102196,5.83875,-21.9122)">
            <path d="M832.4,359.1L819.5,360.2C823.6,363.6 832.1,360.7 832.1,360.7L832.4,359.1Z" style="fill:rgb(226,194,144);fill-rule:nonzero;"/>
        </g>
        <g transform="matrix(0.00958083,0,0,0.102196,5.83875,-21.9122)">
            <ellipse cx="838.6" cy="338" rx="4.1" ry="6.2" style="fill:rgb(44,18,38);"/>
        </g>
        <g transform="matrix(0.00958083,0,0,0.102196,5.83875,-21.9122)">
            <ellipse cx="838.8" cy="338" rx="3.4" ry="5.7" style="fill:rgb(240,56,107);"/>
        </g>
        <g transform="matrix(0.00958083,0,0,0.102196,5.83875,-21.9122)">
            <path d="M822.4,339.1L834.7,337.5L834.9,339.3L822.6,339.8L822.4,339.1Z" style="fill:rgb(44,18,38);fill-rule:nonzero;"/>
        </g>
        <g transform="matrix(0.00958083,0,0,0.102196,5.83875,-21.9122)">
            <path d="M842.4,336.7L843.8,336.5L844,337.7L842.5,338.5L842.4,336.7Z" style="fill:rgb(44,18,38);fill-rule:nonzero;"/>
        </g>
        <g transform="matrix(0.00958083,0,0,0.102196,5.83875,-21.9122)">
            <path d="M828.1,513.1L877.3,585.6L913.1,667.2L900.7,683.8L852.7,605.3L775.8,513.1L828.1,513.1Z" style="fill:rgb(190,159,113);fill-rule:nonzero;"/>
        </g>
        <g transform="matrix(0.00958083,0,0,0.102196,5.83875,-21.9122)">
            <path d="M776.6,497.6L758.8,587.9L691.1,634.4L703,657.1L788.9,604.2L826.5,497.6L776.6,497.6Z" style="fill:rgb(226,194,144);fill-rule:nonzero;"/>
        </g>
        <g transform="matrix(0.00958083,0,0,0.102196,5.83875,-21.9122)">
            <path d="M703,657.1L703.5,691.6L675.2,638.4L692.5,636.9L703,657.1Z" style="fill:rgb(88,89,91);fill-rule:nonzero;"/>
        </g>
        <g transform="matrix(0.00958083,0,0,0.102196,5.83875,-21.9122)">
            <path d="M703.5,691.6L675.2,638.4L670.2,641L698.4,694.3L703.5,691.6Z" style="fill:rgb(241,242,242);fill-rule:nonzero;"/>
        </g>
        <g transform="matrix(0.00958083,0,0,0.102196,5.83875,-21.9122)">
            <path d="M913.1,667.2L950.5,653.7L908.7,697.3L901.9,681.2L913.1,667.2Z" style="fill:rgb(88,89,91);fill-rule:nonzero;"/>
        </g>
        <g transform="matrix(0.00958083,0,0,0.102196,5.83875,-21.9122)">
            <path d="M950.5,653.7L908.7,697.3L912.8,701.2L954.6,657.7L950.5,653.7Z" style="fill:rgb(241,242,242);fill-rule:nonzero;"/>
        </g>
        <g transform="matrix(0.00958083,0,0,0.102196,5.83875,-21.9122)">
            <path d="M835.7,375C840,375.9 843,379.8 842.7,384.3C840.7,409.4 850.2,444 872,465.6L862.8,469.6C838.6,437.5 837.1,398.9 837.3,385.8C837.3,383.6 835.7,381.8 833.5,381.5L835.7,375Z" style="fill:rgb(61,25,52);fill-rule:nonzero;"/>
        </g>
        <g transform="matrix(0.00958083,0,0,0.102196,5.83875,-21.9122)">
            <path d="M835.7,375L807.3,370.1L777.9,364.5C773.6,375.5 782.4,378.4 783.9,382C785.5,385.6 781.3,394.1 783.5,397.6C785.7,401.1 793.5,403.6 792.1,408.3C790.7,413 780.3,451 768.5,513.1L828.6,513.1C825.9,475.4 828,394.1 835.7,375Z" style="fill:rgb(61,25,52);fill-rule:nonzero;"/>
        </g>
        <g transform="matrix(0.00958083,0,0,0.102196,5.83875,-21.9122)">
            <path d="M863.4,503.9L882.8,527.3L889.1,540.4L883.6,557.9C903.5,552.2 906.1,533.4 891.4,521.1L875.5,496.1L863.4,503.9Z" style="fill:rgb(236,214,182);fill-rule:nonzero;"/>
        </g>
        <g transform="matrix(0.00958083,0,0,0.102196,5.83875,-21.9122)">
            <path d="M851.8,459.2C849.8,452.3 824.7,382.6 808.6,392.6C793.6,401.9 826.3,451.7 833.4,466.7C840.1,481 867.8,513.2 875.7,523.4L889.5,513.6C883.7,504.2 853.6,465.2 851.8,459.2Z" style="fill:rgb(96,40,83);fill-rule:nonzero;"/>
        </g>
        <g transform="matrix(0.00958083,0,0,0.102196,7.04978,-21.9122)">
            <path d="M936.3,492.7L931.4,522.7L925.7,536L908.9,543.3C926.3,554.5 942.2,544.2 941.7,525L950.1,496.6L936.3,492.7Z" style="fill:rgb(236,214,182);fill-rule:nonzero;"/>
        </g>
        <g transform="matrix(0.00958083,0,0,0.102196,7.04978,-21.9122)">
            <path d="M961,462C964.8,456 1025.6,404.9 1007.4,399.3C990.5,394.1 949.9,437.8 943.2,453.1C936.8,467.5 932.2,502.2 929.7,514.8L946.2,518.7C949.5,508.2 957.7,467.3 961,462Z" style="fill:rgb(96,40,83);fill-rule:nonzero;"/>
        </g>
        <g transform="matrix(0.00958083,0,0,0.102196,7.04978,-21.9122)">
            <path d="M1002.2,346.1C1004.9,343.9 1009.3,345.3 1010.5,349.2L1011.8,356.2L1014.7,352.1L1015.7,343.8L1021,339.9L1021,335.4L1032.7,333.3L1033,329.4L1027.9,317.7L1007.8,317.2L998.3,321.3L994,336.7L993.2,341.7L1003.4,364.4L1007.6,355.7C1003.4,354.5 999.5,348.3 1002.2,346.1Z" style="fill:rgb(61,25,52);fill-rule:nonzero;"/>
        </g>
        <g transform="matrix(0.00958083,0,0,0.102196,7.04978,-21.9122)">
            <path d="M1032.6,333.2L1020.9,335.3L1020.9,339.8L1015.6,343.7L1014.6,352L1011.7,356.1L1010.4,349.1C1009.2,345.2 1004.8,343.8 1002.1,346C999.4,348.2 1003.3,354.4 1007.5,355.5L1003.3,364.2L993.6,382.1L1016.8,386.1L1020.3,368.9L1026.4,368.3L1029.4,356.3L1033.2,355.5L1031.4,346.7L1032.6,333.2Z" style="fill:rgb(236,214,182);fill-rule:nonzero;"/>
        </g>
        <g transform="matrix(0.00958083,0,0,0.102196,7.04978,-21.9122)">
            <path d="M1036.9,341L989.3,341.6C987.7,341.6 986.4,340.3 986.3,338.7L986.3,337.2C986.3,335.6 987.6,334.3 989.2,334.2L1036.8,333.6C1038.4,333.6 1039.7,334.9 1039.8,336.5L1039.8,338C1039.8,339.7 1038.5,341 1036.9,341Z" style="fill:rgb(82,34,71);fill-rule:nonzero;"/>
        </g>
        <g transform="matrix(0.00958083,0,0,0.102196,7.04978,-21.9122)">
            <path d="M1016.9,311.4L1008.6,311.5C999.8,311.6 992.7,318.9 992.8,327.7L992.9,334.3L1033.3,333.8L1033.2,327.2C1033,318.3 1025.7,311.3 1016.9,311.4Z" style="fill:rgb(96,40,83);fill-rule:nonzero;"/>
        </g>
        <g transform="matrix(0.00958083,0,0,0.102196,7.04978,-21.9122)">
            <path d="M1020.3,369L1007.4,370.1C1011.5,373.5 1020,370.6 1020,370.6L1020.3,369Z" style="fill:rgb(226,194,144);fill-rule:nonzero;"/>
        </g>
        <g transform="matrix(0.00958083,0,0,0.102196,7.04978,-21.9122)">
            <ellipse cx="1026.5" cy="347.8" rx="4.1" ry="6.2" style="fill:rgb(44,18,38);"/>
        </g>
        <g transform="matrix(0.00958083,0,0,0.102196,7.04978,-21.9122)">
            <ellipse cx="1026.7" cy="347.8" rx="3.4" ry="5.7" style="fill:rgb(240,56,107);"/>
        </g>
        <g transform="matrix(0.00958083,0,0,0.102196,7.04978,-21.9122)">
            <path d="M1010.4,349L1022.7,347.4L1022.9,349.2L1010.5,349.7L1010.4,349Z" style="fill:rgb(44,18,38);fill-rule:nonzero;"/>
        </g>
        <g transform="matrix(0.00958083,0,0,0.102196,7.04978,-21.9122)">
            <path d="M1030.4,346.6L1031.8,346.4L1032,347.5L1030.4,348.4L1030.4,346.6Z" style="fill:rgb(44,18,38);fill-rule:nonzero;"/>
        </g>
        <g transform="matrix(0.00958083,0,0,0.102196,7.04978,-21.9122)">
            <path d="M1016,523L1067.9,595.7L1048.3,677.9L1026.2,680.1L1034.8,607.6L963.8,523L1016,523Z" style="fill:rgb(190,159,113);fill-rule:nonzero;"/>
        </g>
        <g transform="matrix(0.00958083,0,0,0.102196,7.04978,-21.9122)">
            <path d="M964.5,507.5L935.5,598.4L877,635.3L871.9,660.1L963.8,616.3L1014.4,507.5L964.5,507.5Z" style="fill:rgb(226,194,144);fill-rule:nonzero;"/>
        </g>
        <g transform="matrix(0.00958083,0,0,0.102196,7.04978,-21.9122)">
            <path d="M871.9,660.1L850,686.7L862.8,627.8L877,637.9L871.9,660.1Z" style="fill:rgb(88,89,91);fill-rule:nonzero;"/>
        </g>
        <g transform="matrix(0.00958083,0,0,0.102196,7.04978,-21.9122)">
            <path d="M850,686.7L862.8,627.8L857.3,626.5L844.4,685.4L850,686.7Z" style="fill:rgb(241,242,242);fill-rule:nonzero;"/>
        </g>
        <g transform="matrix(0.00958083,0,0,0.102196,7.04978,-21.9122)">
            <path d="M1048.3,677.9L1083.9,695.7L1023.5,695.4L1030.5,679.4L1048.3,677.9Z" style="fill:rgb(88,89,91);fill-rule:nonzero;"/>
        </g>
        <g transform="matrix(0.00958083,0,0,0.102196,7.04978,-21.9122)">
            <path d="M1083.9,695.7L1023.5,695.4L1023.4,701L1083.8,701.5L1083.9,695.7Z" style="fill:rgb(241,242,242);fill-rule:nonzero;"/>
        </g>
        <g transform="matrix(0.00958083,0,0,0.102196,7.04978,-21.9122)">
            <path d="M1023.7,384.9C1028,385.8 1031,389.7 1030.7,394.2C1028.7,419.3 1038.2,453.9 1060,475.5L1050.8,479.5C1026.6,447.4 1025.1,408.8 1025.3,395.7C1025.3,393.5 1023.7,391.7 1021.5,391.4L1023.7,384.9Z" style="fill:rgb(61,25,52);fill-rule:nonzero;"/>
        </g>
        <g transform="matrix(0.00958083,0,0,0.102196,7.04978,-21.9122)">
            <path d="M1023.7,384.9L995.3,380L965.9,374.4C961.6,385.4 970.4,388.3 971.9,391.9C973.5,395.5 969.3,404 971.5,407.5C973.7,411 981.5,413.5 980.1,418.2C978.7,422.9 968.3,460.9 956.5,523L1016.6,523C1013.9,485.3 1016,404 1023.7,384.9Z" style="fill:rgb(61,25,52);fill-rule:nonzero;"/>
        </g>
        <g transform="matrix(0.00958083,0,0,0.102196,7.04978,-21.9122)">
            <path d="M1048.8,515.9L1070.7,537L1078.4,549.3L1074.9,567.3C1094,559.4 1094.5,540.4 1078.5,529.9L1059.9,506.8L1048.8,515.9Z" style="fill:rgb(236,214,182);fill-rule:nonzero;"/>
        </g>
        <g transform="matrix(0.00958083,0,0,0.102196,7.04978,-21.9122)">
            <path d="M1033.1,474.7C1031.1,467.8 1012.7,392.5 996.5,402.5C981.5,411.8 1008.7,466.3 1015.8,481.4C1022.5,495.7 1055.7,523.2 1063.7,533.3L1077.5,523.5C1071.7,514.1 1034.9,480.7 1033.1,474.7Z" style="fill:rgb(96,40,83);fill-rule:nonzero;"/>
        </g>
        <g transform="matrix(0.00958083,0,0,0.102196,1.52719,-21.9122)">
            <path d="M359.2,510.5L379.4,533.2L386.1,546.1L381.2,563.7C400.9,557.3 402.9,538.5 387.7,526.7L371,502.2L359.2,510.5Z" style="fill:rgb(236,214,182);fill-rule:nonzero;"/>
        </g>
        <g transform="matrix(0.00958083,0,0,0.102196,1.52719,-21.9122)">
            <path d="M348.4,464.1C347.4,457 332.7,384.4 315.2,392C299,399.1 324.2,453 329,468.9C333.6,484 359.4,511.9 370.4,526.5L383.4,517.2C371.5,500.5 349.3,470.2 348.4,464.1Z" style="fill:rgb(96,40,83);fill-rule:nonzero;"/>
        </g>
        <g transform="matrix(0.00958083,0,0,0.102196,1.52719,-21.9122)">
            <path d="M325.7,342.8C328.5,340.7 332.8,342.4 333.8,346.3L334.7,353.4L337.8,349.5L339.3,341.2L344.8,337.6L345,333.1L356.8,331.6L357.4,327.7L353,315.7L332.9,314.1L323.1,317.7L318,333L317,337.9L325.9,361.1L330.6,352.6C326.4,351.3 322.9,344.9 325.7,342.8Z" style="fill:rgb(61,25,52);fill-rule:nonzero;"/>
        </g>
        <g transform="matrix(0.00958083,0,0,0.102196,1.52719,-21.9122)">
            <path d="M356.9,331.7L345.1,333.2L344.9,337.7L339.4,341.3L337.9,349.6L334.8,353.5L333.9,346.4C332.9,342.5 328.6,340.8 325.8,342.9C323,345 326.5,351.4 330.6,352.7L325.9,361.2L315.2,378.5L338.1,383.7L342.6,366.8L348.7,366.6L352.4,354.8L356.2,354.2L354.9,345.3L356.9,331.7Z" style="fill:rgb(236,214,182);fill-rule:nonzero;"/>
        </g>
        <g transform="matrix(0.00958083,0,0,0.102196,1.52719,-21.9122)">
            <path d="M360.7,339.7L313.1,337.7C311.5,337.6 310.2,336.3 310.3,334.7L310.4,333.2C310.5,331.6 311.8,330.3 313.4,330.4L361,332.4C362.6,332.5 363.9,333.8 363.8,335.4L363.7,336.9C363.7,338.5 362.3,339.8 360.7,339.7Z" style="fill:rgb(82,34,71);fill-rule:nonzero;"/>
        </g>
        <g transform="matrix(0.00958083,0,0,0.102196,1.52719,-21.9122)">
            <path d="M342.3,309L334,308.6C325.2,308.2 317.7,315.1 317.3,323.9L317,330.5L357.3,332.2L357.6,325.6C358,316.8 351.2,309.4 342.3,309Z" style="fill:rgb(96,40,83);fill-rule:nonzero;"/>
        </g>
        <g transform="matrix(0.00958083,0,0,0.102196,1.52719,-21.9122)">
            <path d="M342.6,366.7L329.6,367.1C333.5,370.7 342.1,368.3 342.1,368.3L342.6,366.7Z" style="fill:rgb(226,194,144);fill-rule:nonzero;"/>
        </g>
        <g transform="matrix(0.00956646,0.00565237,-0.00052991,0.102042,1.71563,-23.8362)">
            <ellipse cx="349.9" cy="345.9" rx="4.1" ry="6.2" style="fill:rgb(44,18,38);"/>
        </g>
        <g transform="matrix(0.00956646,0.00565237,-0.00052991,0.102042,1.71564,-23.8373)">
            <ellipse cx="350.2" cy="345.9" rx="3.4" ry="5.7" style="fill:rgb(240,56,107);"/>
        </g>
        <g transform="matrix(0.00958083,0,0,0.102196,1.52719,-21.9122)">
            <path d="M333.7,346.2L346.1,345.3L346.2,347.1L333.9,346.9L333.7,346.2Z" style="fill:rgb(44,18,38);fill-rule:nonzero;"/>
        </g>
        <g transform="matrix(0.00958083,0,0,0.102196,1.52719,-21.9122)">
            <path d="M353.8,344.9L355.2,344.8L355.4,345.9L353.8,346.7L353.8,344.9Z" style="fill:rgb(44,18,38);fill-rule:nonzero;"/>
        </g>
        <g transform="matrix(0.00958083,0,0,0.102196,1.52719,-21.9122)">
            <path d="M336.5,520.6L276.5,621L189.8,653.5L191.6,633.6L253.9,606.8L284.8,517.7L336.5,520.6Z" style="fill:rgb(190,159,113);fill-rule:nonzero;"/>
        </g>
        <g transform="matrix(0.00958083,0,0,0.102196,1.52719,-21.9122)">
            <path d="M287.5,517.7L358.7,608.4L349.7,683.7L373,685L387.3,600.5L337.4,505.2L287.5,517.7Z" style="fill:rgb(226,194,144);fill-rule:nonzero;"/>
        </g>
        <g transform="matrix(0.00958083,0,0,0.102196,1.52719,-21.9122)">
            <path d="M373,685L403,702.1L342.7,699.4L350.3,683.8L373,685Z" style="fill:rgb(88,89,91);fill-rule:nonzero;"/>
        </g>
        <g transform="matrix(0.00958083,0,0,0.102196,1.52719,-21.9122)">
            <path d="M403,702.1L342.7,699.4L342.4,705.1L402.7,707.9L403,702.1Z" style="fill:rgb(241,242,242);fill-rule:nonzero;"/>
        </g>
        <g transform="matrix(0.00958083,0,0,0.102196,1.52719,-21.9122)">
            <path d="M190.6,652.3L168,685L176.8,625.3L191.6,634.5L190.6,652.3Z" style="fill:rgb(88,89,91);fill-rule:nonzero;"/>
        </g>
        <g transform="matrix(0.00958083,0,0,0.102196,1.52719,-21.9122)">
            <path d="M168,685L176.8,625.3L171.1,624.4L162.2,684.1L168,685Z" style="fill:rgb(241,242,242);fill-rule:nonzero;"/>
        </g>
        <g transform="matrix(0.00958083,0,0,0.102196,1.52719,-21.9122)">
            <path d="M345.1,382.7C349.4,383.8 352.2,387.9 351.6,392.3C348.2,417.2 355.8,452.3 376.4,475.1L366.9,478.6C344.5,445.2 345.2,406.6 346,393.5C346.1,391.3 344.6,389.4 342.5,389L345.1,382.7Z" style="fill:rgb(61,25,52);fill-rule:nonzero;"/>
        </g>
        <g transform="matrix(0.00958083,0,0,0.102196,1.52719,-21.9122)">
            <path d="M345.1,382.7L317,376.3L288,369.1C283.1,379.8 291.7,383.2 293.1,386.9C294.5,390.6 289.8,398.9 291.8,402.5C293.8,406.1 301.4,409 299.8,413.7C298.2,418.3 283.5,467.8 284.9,517.8L348.7,521.1C339.1,482.5 336.3,401.4 345.1,382.7Z" style="fill:rgb(61,25,52);fill-rule:nonzero;"/>
        </g>
        <g transform="matrix(0.00958083,0,0,0.102196,1.52719,-21.9122)">
            <path d="M255.6,502.4L249.6,532.2L243.4,545.3L226.4,552C243.3,563.9 259.6,554.1 259.9,535L269.4,506.9L255.6,502.4Z" style="fill:rgb(236,214,182);fill-rule:nonzero;"/>
        </g>
        <g transform="matrix(0.00958083,0,0,0.102196,1.52719,-21.9122)">
            <path d="M286.2,465.9C291.2,460.8 340.4,405.4 323.8,396C308.4,387.3 280.5,439.9 270.7,453.4C261.4,466.1 254.7,503.6 249.6,521.1L264.8,525.9C271,506.2 281.8,470.3 286.2,465.9Z" style="fill:rgb(96,40,83);fill-rule:nonzero;"/>
        </g>
        <g transform="matrix(0.00958083,0,0,0.102196,0.155938,-21.9122)">
            <path d="M199.3,494.9L222,515.2L230.2,527.2L227.3,545.3C246.1,536.7 245.9,517.7 229.6,507.8L210.2,485.4L199.3,494.9Z" style="fill:rgb(236,214,182);fill-rule:nonzero;"/>
        </g>
        <g transform="matrix(0.00958083,0,0,0.102196,0.155938,-21.9122)">
            <path d="M183.3,450C181.5,443.1 158.6,372.6 142.1,382.2C126.9,391.1 158,441.8 164.6,457C170.9,471.5 199.7,496.3 212.3,509.5L224.2,498.8C210.4,483.5 184.9,456 183.3,450Z" style="fill:rgb(96,40,83);fill-rule:nonzero;"/>
        </g>
        <g transform="matrix(0.00958083,0,0,0.102196,0.155938,-21.9122)">
            <path d="M154.3,330.5C157.1,328.4 161.4,330.1 162.4,334L163.3,341.1L166.4,337.2L167.9,328.9L173.4,325.3L173.6,320.8L185.4,319.3L186,315.4L181.6,303.4L161.5,301.8L151.7,305.4L146.6,320.6L145.6,325.5L154.5,348.7L159.2,340.2C155,339 151.5,332.6 154.3,330.5Z" style="fill:rgb(61,25,52);fill-rule:nonzero;"/>
        </g>
        <g transform="matrix(0.00958083,0,0,0.102196,0.155938,-21.9122)">
            <path d="M185.5,319.3L173.7,320.8L173.5,325.3L168,328.9L166.5,337.2L163.4,341.1L162.5,334C161.5,330.1 157.2,328.4 154.4,330.5C151.6,332.6 155.1,339 159.2,340.3L154.5,348.8L143.8,366.1L166.7,371.3L171.2,354.4L177.3,354.2L181,342.4L184.8,341.8L183.5,332.9L185.5,319.3Z" style="fill:rgb(236,214,182);fill-rule:nonzero;"/>
        </g>
        <g transform="matrix(0.00958083,0,0,0.102196,0.155938,-21.9122)">
            <path d="M189.3,327.4L141.7,325.4C140.1,325.3 138.8,324 138.9,322.4L139,320.9C139.1,319.3 140.4,318 142,318.1L189.6,320.1C191.2,320.2 192.5,321.5 192.4,323.1L192.3,324.6C192.3,326.2 190.9,327.4 189.3,327.4Z" style="fill:rgb(82,34,71);fill-rule:nonzero;"/>
        </g>
        <g transform="matrix(0.00958083,0,0,0.102196,0.155938,-21.8964)">
            <path d="M170.9,296.6L162.6,296.2C153.8,295.8 146.3,302.7 145.9,311.5L145.6,318.1L185.9,319.8L186.2,313.2C186.6,304.5 179.8,297 170.9,296.6Z" style="fill:rgb(96,40,83);fill-rule:nonzero;"/>
        </g>
        <g transform="matrix(0.00958083,0,0,0.102196,0.155938,-21.9122)">
            <path d="M171.2,354.4L158.2,354.8C162.1,358.4 170.7,356 170.7,356L171.2,354.4Z" style="fill:rgb(226,194,144);fill-rule:nonzero;"/>
        </g>
        <g transform="matrix(0.00956646,0.00565237,-0.00052991,0.102042,0.335331,-22.8693)">
            <ellipse cx="178.6" cy="333.6" rx="4.1" ry="6.2" style="fill:rgb(44,18,38);"/>
        </g>
        <g transform="matrix(0.00956646,0.00565237,-0.00052991,0.102042,0.335339,-22.8704)">
            <ellipse cx="178.8" cy="333.6" rx="3.4" ry="5.7" style="fill:rgb(240,56,107);"/>
        </g>
        <g transform="matrix(0.00958083,0,0,0.102196,0.155938,-21.9122)">
            <path d="M162.3,333.8L174.7,333L174.8,334.8L162.5,334.5L162.3,333.8Z" style="fill:rgb(61,25,52);fill-rule:nonzero;"/>
        </g>
        <g transform="matrix(0.00958083,0,0,0.102196,0.155938,-21.9122)">
            <path d="M182.4,332.5L183.8,332.5L184,333.6L182.4,334.3L182.4,332.5Z" style="fill:rgb(61,25,52);fill-rule:nonzero;"/>
        </g>
        <g transform="matrix(0.00958083,0,0,0.102196,0.155938,-21.9122)">
            <path d="M165.1,508.2L118.7,599.3L41.9,657.1L32.1,639.9L97.9,585.6L113.4,505.4L165.1,508.2Z" style="fill:rgb(190,159,113);fill-rule:nonzero;"/>
        </g>
        <g transform="matrix(0.00958083,0,0,0.102196,0.155938,-21.9122)">
            <path d="M116.1,505.4L191.6,598.4L238.4,682.9L255.4,667.9L215.7,583L166,492.8L116.1,505.4Z" style="fill:rgb(226,194,144);fill-rule:nonzero;"/>
        </g>
        <g transform="matrix(0.00958083,0,0,0.102196,0.155938,-21.9122)">
            <path d="M255.4,667.9L288.8,659L243.9,699.4L238.4,682.9L255.4,667.9Z" style="fill:rgb(88,89,91);fill-rule:nonzero;"/>
        </g>
        <g transform="matrix(0.00958083,0,0,0.102196,0.155938,-21.9122)">
            <path d="M288.8,659L243.9,699.4L247.7,703.7L292.6,663.4L288.8,659Z" style="fill:rgb(241,242,242);fill-rule:nonzero;"/>
        </g>
        <g transform="matrix(0.00958083,0,0,0.102196,0.155938,-21.9122)">
            <path d="M41.9,657.1L39.4,696.8L16.2,641.1L33.5,641.3L41.9,657.1Z" style="fill:rgb(88,89,91);fill-rule:nonzero;"/>
        </g>
        <g transform="matrix(0.00958083,0,0,0.102196,0.155938,-21.9122)">
            <path d="M39.4,696.8L16.2,641.1L10.9,643.3L34,699L39.4,696.8Z" style="fill:rgb(241,242,242);fill-rule:nonzero;"/>
        </g>
        <g transform="matrix(0.00958083,0,0,0.102196,0.155938,-21.9122)">
            <path d="M173.7,370.4C178,371.5 180.8,375.6 180.2,380C176.8,404.9 184.4,440 205,462.8L195.5,466.3C173.1,432.9 173.8,394.3 174.6,381.2C174.7,379 173.2,377.1 171.1,376.7L173.7,370.4Z" style="fill:rgb(61,25,52);fill-rule:nonzero;"/>
        </g>
        <g transform="matrix(0.00958083,0,0,0.102196,0.155938,-21.9122)">
            <path d="M173.7,370.4L145.6,364L116.6,356.8C111.7,367.5 120.3,370.9 121.7,374.6C123.1,378.3 118.4,386.6 120.4,390.2C122.4,393.8 130,396.7 128.4,401.4C126.8,406 112.1,455.5 113.5,505.5L177.3,508.8C167.7,470.1 164.9,389 173.7,370.4Z" style="fill:rgb(61,25,52);fill-rule:nonzero;"/>
        </g>
        <g transform="matrix(0.00958083,0,0,0.102196,0.155938,-21.9122)">
            <path d="M74.1,485.2L68.1,515L61.9,528.1L44.9,534.8C61.8,546.7 78.1,536.9 78.4,517.8L87.9,489.7L74.1,485.2Z" style="fill:rgb(236,214,182);fill-rule:nonzero;"/>
        </g>
        <g transform="matrix(0.00958083,0,0,0.102196,0.155938,-21.9122)">
            <path d="M104.6,448.7C109.6,443.6 166.1,397.8 149.5,388.4C134.1,379.7 98.9,422.7 89.1,436.2C79.8,448.9 73.1,486.4 68,503.9L83.2,508.7C89.5,489.1 100.2,453.1 104.6,448.7Z" style="fill:rgb(96,40,83);fill-rule:nonzero;"/>
        </g>
    </g>
</svg>
