<?xml version="1.0" encoding="UTF-8" standalone="no"?>
<!DOCTYPE svg PUBLIC "-//W3C//DTD SVG 1.1//EN" "http://www.w3.org/Graphics/SVG/1.1/DTD/svg11.dtd">
<svg width="100%" height="100%" viewBox="0 0 168 56" version="1.1" xmlns="http://www.w3.org/2000/svg" xmlns:xlink="http://www.w3.org/1999/xlink" xml:space="preserve" xmlns:serif="http://www.serif.com/" style="fill-rule:evenodd;clip-rule:evenodd;stroke-linecap:round;stroke-linejoin:round;stroke-miterlimit:1.5;">
    <g id="player" transform="matrix(7,0,0,1,0,0)">
        <rect x="0" y="0" width="24" height="56" style="fill:none;"/>
        <clipPath id="_clip1">
            <rect x="0" y="0" width="24" height="56"/>
        </clipPath>
        <g clip-path="url(#_clip1)">
            <g transform="matrix(0.142857,0,0,1,0,-4)">
                <path d="M12,20L12,32" style="fill:none;stroke:rgb(51,51,51);stroke-width:2px;"/>
            </g>
            <g transform="matrix(0.142857,0,0,1,3.42857,-4)">
                <path d="M12,20L12,32" style="fill:none;stroke:rgb(51,51,51);stroke-width:2px;"/>
            </g>
            <g transform="matrix(0.142857,0,0,1,0,0)">
                <path d="M4,56L12,28L20,56" style="fill:none;stroke:rgb(51,51,51);stroke-width:2px;"/>
            </g>
            <g transform="matrix(0.142857,0,0,1,20.5714,0)">
                <path d="M4,56L12,28L20,56" style="fill:none;stroke:rgb(51,51,51);stroke-width:2px;"/>
            </g>
            <g transform="matrix(0.142857,0,0,1,3.42857,0)">
                <path d="M6,56L12,28L18,56" style="fill:none;stroke:rgb(51,51,51);stroke-width:2px;"/>
            </g>
            <g transform="matrix(0.142857,0,0,1,17.1429,0)">
                <path d="M6,56L12,28L18,56" style="fill:none;stroke:rgb(51,51,51);stroke-width:2px;"/>
            </g>
            <g transform="matrix(0.142857,0,0,1,6.85714,0)">
                <path d="M10,56L12,28L14,56" style="fill:none;stroke:rgb(51,51,51);stroke-width:2px;"/>
            </g>
            <g transform="matrix(0.142857,0,0,1,13.7143,0)">
                <path d="M10,56L12,28L14,56" style="fill:none;stroke:rgb(51,51,51);stroke-width:2px;"/>
            </g>
            <g transform="matrix(0.142857,0,0,1,3.42857,-8)">
                <path d="M6,36C9.158,33.212 9.829,29.221 12,24C13.999,28.972 14.456,33.276 18,36" style="fill:none;stroke:rgb(51,51,51);stroke-width:2px;"/>
            </g>
            <g transform="matrix(0.142857,0,0,1,6.85714,-8)">
                <path d="M6,36C9.158,33.212 9.829,29.221 12,24C13.999,28.972 14.456,33.276 18,36" style="fill:none;stroke:rgb(51,51,51);stroke-width:2px;"/>
            </g>
            <g transform="matrix(0.142857,0,0,1,10.2857,-8)">
                <path d="M6,36C9.158,33.212 9.829,29.221 12,24C13.999,28.972 14.456,33.276 18,36" style="fill:none;stroke:rgb(51,51,51);stroke-width:2px;"/>
            </g>
            <g transform="matrix(0.142857,0,0,1,13.7143,-8)">
                <path d="M6,36C9.158,33.212 9.829,29.221 12,24C13.999,28.972 14.456,33.276 18,36" style="fill:none;stroke:rgb(51,51,51);stroke-width:2px;"/>
            </g>
            <g transform="matrix(0.142857,0,0,1,17.1429,-8)">
                <path d="M6,36C9.158,33.212 9.829,29.221 12,24C13.999,28.972 14.456,33.276 18,36" style="fill:none;stroke:rgb(51,51,51);stroke-width:2px;"/>
            </g>
            <g transform="matrix(0.142857,0,0,1,20.5714,-8)">
                <path d="M6,36C9.158,33.212 9.829,29.221 12,24C13.999,28.972 14.456,33.276 18,36" style="fill:none;stroke:rgb(51,51,51);stroke-width:2px;"/>
            </g>
            <g transform="matrix(0.142857,0,0,1,0,0)">
                <path d="M60,16L60,28" style="fill:none;stroke:rgb(51,51,51);stroke-width:2px;"/>
            </g>
            <g transform="matrix(0.142857,0,0,1,6.85714,0)">
                <path d="M60,16L60,28" style="fill:none;stroke:rgb(51,51,51);stroke-width:2px;"/>
            </g>
            <g transform="matrix(0.142857,0,0,1,10.2857,0)">
                <path d="M60,16L60,28" style="fill:none;stroke:rgb(51,51,51);stroke-width:2px;"/>
            </g>
            <g transform="matrix(0.142857,0,0,1,13.7143,0)">
                <path d="M60,16L60,28" style="fill:none;stroke:rgb(51,51,51);stroke-width:2px;"/>
            </g>
            <g transform="matrix(0.142857,0,0,1,0,-8)">
                <path d="M6,36C9.158,33.212 9.829,29.221 12,24C13.999,28.972 14.456,33.276 18,36" style="fill:none;stroke:rgb(51,51,51);stroke-width:2px;"/>
            </g>
            <g transform="matrix(0.142857,0,0,2,10.2857,-24)">
                <path d="M12,20L12,40" style="fill:none;stroke:rgb(51,51,51);stroke-width:1.26px;"/>
            </g>
            <g transform="matrix(0.142857,0,0,1,0,-4)">
                <circle cx="12" cy="12" r="8" style="fill:rgb(51,51,51);"/>
            </g>
            <g transform="matrix(0.142857,0,0,1,20.5714,-4)">
                <circle cx="12" cy="12" r="8" style="fill:rgb(51,51,51);"/>
            </g>
            <g transform="matrix(0.142857,0,0,1,3.42857,-4)">
                <circle cx="12" cy="12" r="8" style="fill:rgb(51,51,51);"/>
            </g>
            <g transform="matrix(0.142857,0,0,1,17.1429,-4)">
                <circle cx="12" cy="12" r="8" style="fill:rgb(51,51,51);"/>
            </g>
            <g transform="matrix(0.142857,0,0,1,6.85714,-4)">
                <circle cx="12" cy="12" r="8" style="fill:rgb(51,51,51);"/>
            </g>
            <g transform="matrix(0.142857,0,0,1,13.7143,-4)">
                <circle cx="12" cy="12" r="8" style="fill:rgb(51,51,51);"/>
            </g>
            <g transform="matrix(0.142857,0,0,1,10.2857,-4)">
                <circle cx="12" cy="12" r="8" style="fill:rgb(51,51,51);"/>
            </g>
        </g>
    </g>
</svg>
