<?xml version="1.0" encoding="UTF-8" standalone="no"?><!DOCTYPE svg PUBLIC "-//W3C//DTD SVG 1.1//EN" "http://www.w3.org/Graphics/SVG/1.1/DTD/svg11.dtd"><svg width="100%" height="100%" viewBox="0 0 256 56" version="1.1" xmlns="http://www.w3.org/2000/svg" xmlns:xlink="http://www.w3.org/1999/xlink" xml:space="preserve" xmlns:serif="http://www.serif.com/" style="fill-rule:evenodd;clip-rule:evenodd;stroke-linejoin:round;stroke-miterlimit:2;"><rect id="player" x="0" y="0" width="256" height="56" style="fill:none;"/><path d="M81.557,10.872c0.276,-0.225 0.726,-0.082 0.848,0.317l0.133,0.715l0.297,-0.419l0.102,-0.848l0.541,-0.399l0,-0.459l1.196,-0.215l0.031,-0.399l-0.521,-1.195l-2.055,-0.051l-0.97,0.419l-0.44,1.573l-0.082,0.511l1.043,2.32l0.429,-0.889c-0.439,-0.112 -0.828,-0.756 -0.552,-0.981Z" style="fill:#3d1934;fill-rule:nonzero;"/><path d="M84.664,9.564l-1.196,0.215l0,0.459l-0.541,0.399l-0.103,0.848l-0.296,0.419l-0.133,-0.715c-0.123,-0.399 -0.572,-0.542 -0.848,-0.317c-0.276,0.225 0.123,0.859 0.552,0.971l-0.429,0.889l-0.992,1.829l2.371,0.409l0.358,-1.758l0.623,-0.061l0.307,-1.226l0.388,-0.082l-0.184,-0.899l0.123,-1.38Z" style="fill:#ecd6b6;fill-rule:nonzero;"/><path d="M85.103,10.361l-4.864,0.061c-0.164,0 -0.297,-0.132 -0.307,-0.296l0,-0.153c0,-0.164 0.133,-0.297 0.297,-0.307l4.864,-0.061c0.164,0 0.296,0.133 0.307,0.296l0,0.154c0,0.163 -0.133,0.296 -0.297,0.306Z" style="fill:#522247;fill-rule:nonzero;"/><path d="M83.059,7.326l-0.848,0.01c-0.899,0.01 -1.625,0.756 -1.615,1.656l0.011,0.674l4.128,-0.051l-0.01,-0.674c-0.02,-0.9 -0.766,-1.625 -1.666,-1.615Z" style="fill:#602853;fill-rule:nonzero;"/><path d="M83.407,13.223l-1.318,0.112c0.419,0.347 1.287,0.051 1.287,0.051l0.031,-0.163Z" style="fill:#e2c290;fill-rule:nonzero;"/><ellipse cx="84.04" cy="11.056" rx="0.419" ry="0.634" style="fill:#2c1226;"/><ellipse cx="84.061" cy="11.056" rx="0.347" ry="0.583" style="fill:url(#_Linear1);"/><path d="M82.395,11.168l1.257,-0.153l0.01,0.174l-1.257,0.051l-0.01,-0.072Z" style="fill:#2c1226;fill-rule:nonzero;"/><path d="M84.429,10.923l0.143,-0.01l0.02,0.112l-0.153,0.082l-0.01,-0.184Z" style="fill:#2c1226;fill-rule:nonzero;"/><path d="M83.662,28.95l2.024,10.363l-9.402,3.127l0,-1.829l6.111,-3.189l-2.647,-8.472l3.914,0Z" style="fill:#be9f71;fill-rule:nonzero;"/><path d="M78.563,27.377l0.49,10.935l-1.87,9.657l2.381,0l2.412,-9.596l1.686,-10.996l-5.099,0Z" style="fill:#e2c290;fill-rule:nonzero;"/><path d="M79.564,47.969l3.158,1.574l-6.162,0.061l0.684,-1.635l2.32,0Z" style="fill:#3d1934;fill-rule:nonzero;"/><path d="M82.722,49.543l-6.162,0.061l0,0.583l6.162,-0.051l0,-0.593Z" style="fill:#f1f2f2;fill-rule:nonzero;"/><path d="M76.284,42.44l-2.116,3.465l0.562,-6.142l1.554,0.848l0,1.829Z" style="fill:#3d1934;fill-rule:nonzero;"/><path d="M74.168,45.905l0.562,-6.142l-0.582,-0.062l-0.572,6.142l0.592,0.062Z" style="fill:#f1f2f2;fill-rule:nonzero;"/><path d="M83.754,14.837c0.44,0.092 0.746,0.491 0.716,0.951c-0.205,2.565 0.766,6.101 2.994,8.308l-0.94,0.409c-2.473,-3.281 -2.627,-7.225 -2.606,-8.564c0,-0.225 -0.164,-0.409 -0.389,-0.439l0.225,-0.665Z" style="fill:#3d1934;fill-rule:nonzero;"/><path d="M83.754,14.837l-2.902,-0.5l-3.005,-0.573c-0.439,1.124 0.46,1.421 0.614,1.789c0.163,0.368 -0.266,1.236 -0.041,1.594c0.225,0.358 1.022,0.613 0.879,1.093c-0.143,0.481 -1.36,5.611 -0.93,10.71l6.142,0c-1.186,-3.883 -1.544,-12.161 -0.757,-14.113Z" style="fill:#3d1934;fill-rule:nonzero;"/><path d="M80.535,28.848l0.521,3.066l-0.112,1.482l-1.38,1.267c2.054,0.511 3.24,-1.022 2.565,-2.861l-0.132,-3.025l-1.462,0.071Z" style="fill:#ecd6b6;fill-rule:nonzero;"/><path d="M81.782,24.301c0.174,-0.716 1.502,-8.166 -0.44,-8.094c-1.798,0.061 -1.44,6.131 -1.584,7.828c-0.132,1.604 0.675,5.876 0.859,7.174l1.727,-0.164c-0.02,-1.124 -0.705,-6.121 -0.562,-6.744Z" style="fill:#602853;fill-rule:nonzero;"/><path d="M206.516,27.377l0.491,10.935l-1.871,9.657l2.392,0l2.412,-9.596l1.676,-10.996l-5.1,0Z" style="fill:#be9f71;fill-rule:nonzero;"/><path d="M207.528,47.969l3.158,1.574l-6.163,0.061l0.685,-1.635l2.32,0Z" style="fill:#3d1934;fill-rule:nonzero;"/><path d="M210.686,49.543l-6.163,0.061l0,0.583l6.163,-0.051l0,-0.593Z" style="fill:#f1f2f2;fill-rule:nonzero;"/><path d="M209.51,10.872c0.276,-0.225 0.726,-0.082 0.849,0.317l0.133,0.715l0.296,-0.419l0.102,-0.848l0.542,-0.399l0,-0.459l1.195,-0.215l0.031,-0.399l-0.521,-1.195l-2.054,-0.051l-0.971,0.419l-0.44,1.573l-0.081,0.511l1.042,2.32l0.429,-0.889c-0.429,-0.112 -0.827,-0.756 -0.552,-0.981Z" style="fill:#3d1934;fill-rule:nonzero;"/><path d="M212.627,9.564l-1.195,0.215l0,0.459l-0.542,0.399l-0.102,0.848l-0.296,0.419l-0.133,-0.715c-0.123,-0.399 -0.573,-0.542 -0.849,-0.317c-0.275,0.225 0.123,0.859 0.552,0.971l-0.429,0.889l-0.991,1.829l2.371,0.409l0.357,-1.758l0.624,-0.061l0.306,-1.226l0.389,-0.082l-0.184,-0.899l0.122,-1.38Z" style="fill:#ecd6b6;fill-rule:nonzero;"/><path d="M213.067,10.361l-4.865,0.061c-0.163,0 -0.296,-0.132 -0.306,-0.296l0,-0.153c0,-0.164 0.133,-0.297 0.296,-0.307l4.865,-0.061c0.163,0 0.296,0.133 0.306,0.296l0,0.154c0,0.163 -0.133,0.296 -0.296,0.306Z" style="fill:#522247;fill-rule:nonzero;"/><path d="M211.013,7.326l-0.849,0.01c-0.899,0.01 -1.624,0.756 -1.614,1.656l0.01,0.674l4.129,-0.051l-0.011,-0.674c-0.01,-0.9 -0.756,-1.625 -1.665,-1.615Z" style="fill:#602853;fill-rule:nonzero;"/><path d="M211.37,13.223l-1.318,0.112c0.419,0.347 1.288,0.051 1.288,0.051l0.03,-0.163Z" style="fill:#e2c290;fill-rule:nonzero;"/><ellipse cx="212.004" cy="11.056" rx="0.419" ry="0.634" style="fill:#2c1226;"/><ellipse cx="212.024" cy="11.056" rx="0.347" ry="0.583" style="fill:url(#_Linear2);"/><path d="M210.348,11.168l1.257,-0.153l0.021,0.174l-1.257,0.051l-0.021,-0.072Z" style="fill:#2c1226;fill-rule:nonzero;"/><path d="M212.392,10.923l0.143,-0.01l0.021,0.112l-0.153,0.082l-0.011,-0.184Z" style="fill:#2c1226;fill-rule:nonzero;"/><path d="M211.871,28.95l2.116,9.985l-9.74,3.505l0,-1.829l6.101,-3.189l-3.76,-8.472l5.283,0Z" style="fill:#e2c290;fill-rule:nonzero;"/><path d="M204.247,42.44l-2.125,3.465l0.562,-6.142l1.563,0.848l0,1.829Z" style="fill:#3d1934;fill-rule:nonzero;"/><path d="M202.122,45.905l0.562,-6.142l-0.573,-0.062l-0.572,6.142l0.583,0.062Z" style="fill:#f1f2f2;fill-rule:nonzero;"/><path d="M211.708,14.837c0.439,0.092 0.746,0.491 0.715,0.951c-0.204,2.565 0.766,6.101 2.994,8.308l-0.94,0.409c-2.473,-3.281 -2.626,-7.225 -2.606,-8.564c0,-0.225 -0.163,-0.409 -0.388,-0.439l0.225,-0.665Z" style="fill:#3d1934;fill-rule:nonzero;"/><path d="M211.708,14.837l-2.903,-0.5l-3.004,-0.573c-0.44,1.124 0.46,1.421 0.613,1.789c0.163,0.368 -0.266,1.236 -0.041,1.594c0.225,0.358 1.022,0.613 0.879,1.093c-0.143,0.481 -1.359,5.611 -0.93,10.71l6.142,0c-1.175,-3.883 -1.543,-12.161 -0.756,-14.113Z" style="fill:#3d1934;fill-rule:nonzero;"/><path d="M208.488,28.848l0.522,3.066l-0.113,1.482l-1.379,1.267c2.054,0.511 3.239,-1.022 2.565,-2.861l-0.133,-3.025l-1.462,0.071Z" style="fill:#ecd6b6;fill-rule:nonzero;"/><path d="M209.745,24.301c0.174,-0.716 1.503,-8.166 -0.439,-8.094c-1.799,0.061 -1.441,6.131 -1.584,7.828c-0.133,1.604 0.675,5.876 0.858,7.174l1.728,-0.164c-0.031,-1.124 -0.716,-6.121 -0.563,-6.744Z" style="fill:#602853;fill-rule:nonzero;"/><path d="M107.807,22.87c0.409,-0.603 5.386,-7.144 3.546,-7.747c-1.706,-0.562 -4.619,5.253 -5.344,6.796c-0.685,1.462 2.503,6.899 2.503,6.899l1.605,-1.002c0,0 -2.024,-3.955 -2.31,-4.946Z" style="fill:#602853;fill-rule:nonzero;"/><path d="M112.498,9.125c0.276,-0.225 0.726,-0.082 0.848,0.316l0.133,0.716l0.296,-0.419l0.103,-0.849l0.541,-0.398l0,-0.46l1.196,-0.215l0.031,-0.398l-0.522,-1.196l-2.054,-0.051l-0.971,0.419l-0.439,1.574l-0.082,0.511l1.043,2.32l0.429,-0.889c-0.429,-0.123 -0.828,-0.757 -0.552,-0.981Z" style="fill:#3d1934;fill-rule:nonzero;"/><path d="M115.615,7.806l-1.196,0.215l0,0.46l-0.541,0.398l-0.103,0.848l-0.296,0.419l-0.133,-0.715c-0.122,-0.398 -0.572,-0.542 -0.848,-0.317c-0.276,0.225 0.123,0.859 0.552,0.971l-0.429,0.889l-0.992,1.83l2.371,0.408l0.358,-1.757l0.623,-0.062l0.307,-1.226l0.388,-0.082l-0.184,-0.899l0.123,-1.38Z" style="fill:#ecd6b6;fill-rule:nonzero;"/><path d="M116.054,8.603l-4.864,0.062c-0.164,0 -0.296,-0.133 -0.307,-0.297l0,-0.153c0,-0.164 0.133,-0.296 0.297,-0.307l4.864,-0.061c0.164,0 0.297,0.133 0.307,0.296l0,0.154c0,0.173 -0.133,0.306 -0.297,0.306Z" style="fill:#522247;fill-rule:nonzero;"/><path d="M114,5.568l-0.848,0.01c-0.899,0.011 -1.625,0.757 -1.615,1.656l0.011,0.674l4.128,-0.051l-0.01,-0.674c-0.01,-0.899 -0.756,-1.625 -1.666,-1.615Z" style="fill:#602853;fill-rule:nonzero;"/><path d="M114.358,11.465l-1.318,0.112c0.419,0.348 1.287,0.051 1.287,0.051l0.031,-0.163Z" style="fill:#e2c290;fill-rule:nonzero;"/><ellipse cx="114.992" cy="9.298" rx="0.419" ry="0.634" style="fill:#2c1226;"/><ellipse cx="115.012" cy="9.298" rx="0.347" ry="0.583" style="fill:url(#_Linear3);"/><path d="M113.336,9.411l1.257,-0.154l0.02,0.184l-1.257,0.041l-0.02,-0.071Z" style="fill:#2c1226;fill-rule:nonzero;"/><path d="M115.38,9.176l0.143,-0.021l0.02,0.113l-0.153,0.081l-0.01,-0.173Z" style="fill:#2c1226;fill-rule:nonzero;"/><path d="M113.98,27.193l3.904,8.676l-6.04,6.622l-1.369,-1.216l4.22,-5.886l-5.447,-8.196l4.732,0Z" style="fill:#be9f71;fill-rule:nonzero;"/><path d="M108.655,25.619l-3.372,11.282l-3.894,7.777l1.84,1.431l5.018,-8.094l5.508,-12.396l-5.1,0Z" style="fill:#e2c290;fill-rule:nonzero;"/><path d="M103.229,46.109l1.512,3.189l-4.895,-3.751l1.543,-0.869l1.84,1.431Z" style="fill:#3d1934;fill-rule:nonzero;"/><path d="M104.741,49.298l-4.895,-3.751l-0.357,0.46l4.884,3.761l0.368,-0.47Z" style="fill:#f1f2f2;fill-rule:nonzero;"/><path d="M111.844,42.491l1.185,3.884l-4.23,-4.497l1.676,-0.603l1.369,1.216Z" style="fill:#3d1934;fill-rule:nonzero;"/><path d="M113.029,46.375l-4.23,-4.497l-0.43,0.399l4.221,4.496l0.439,-0.398Z" style="fill:#f1f2f2;fill-rule:nonzero;"/><path d="M114.695,13.08c0.44,0.091 0.746,0.49 0.716,0.95c-0.205,2.565 0.766,6.101 2.994,8.308l-0.94,0.409c-2.473,-3.28 -2.627,-7.225 -2.606,-8.564c0,-0.225 -0.164,-0.409 -0.389,-0.439l0.225,-0.664Z" style="fill:#3d1934;fill-rule:nonzero;"/><path d="M114.695,13.08l-2.902,-0.501l-3.005,-0.573c-0.439,1.125 0.46,1.421 0.613,1.789c0.164,0.368 -0.265,1.236 -0.04,1.594c0.224,0.358 1.022,0.613 0.878,1.094c-0.143,0.48 -1.205,4.363 -2.411,10.71l6.142,0c-0.276,-3.853 -0.062,-12.162 0.725,-14.113Z" style="fill:#3d1934;fill-rule:nonzero;"/><path d="M115.533,27.366l1.513,2.719l0.388,1.431l-0.879,1.655c2.105,-0.204 2.719,-2.044 1.472,-3.546l-1.124,-2.81l-1.37,0.551Z" style="fill:#ecd6b6;fill-rule:nonzero;"/><path d="M115.206,22.665c-0.071,-0.725 -1.287,-8.206 -3.096,-7.49c-1.676,0.654 0.674,6.264 1.103,7.909c0.409,1.564 2.596,5.315 3.199,6.49l1.574,-0.726c-0.409,-1.063 -2.708,-5.549 -2.78,-6.183Z" style="fill:#602853;fill-rule:nonzero;"/><path d="M244.51,27.366l1.512,2.719l0.388,1.431l-0.878,1.655c2.105,-0.204 2.718,-2.044 1.471,-3.546l-1.124,-2.81l-1.369,0.551Z" style="fill:#ecd6b6;fill-rule:nonzero;"/><path d="M244.183,22.665c-0.072,-0.725 -1.288,-8.206 -3.097,-7.49c-1.676,0.654 0.675,6.264 1.104,7.909c0.409,1.564 2.596,5.315 3.198,6.49l1.574,-0.726c-0.408,-1.063 -2.708,-5.549 -2.779,-6.183Z" style="fill:#602853;fill-rule:nonzero;"/><path d="M241.474,9.125c0.276,-0.225 0.726,-0.082 0.849,0.316l0.132,0.716l0.297,-0.419l0.102,-0.849l0.542,-0.398l0,-0.46l1.195,-0.215l0.031,-0.398l-0.521,-1.196l-2.054,-0.051l-0.971,0.419l-0.44,1.574l-0.081,0.511l1.042,2.32l0.429,-0.889c-0.429,-0.123 -0.828,-0.757 -0.552,-0.981Z" style="fill:#3d1934;fill-rule:nonzero;"/><path d="M244.591,7.806l-1.195,0.215l0,0.46l-0.542,0.398l-0.102,0.848l-0.297,0.419l-0.132,-0.715c-0.123,-0.398 -0.573,-0.542 -0.849,-0.317c-0.276,0.225 0.123,0.859 0.552,0.971l-0.429,0.889l-0.991,1.83l2.371,0.408l0.357,-1.757l0.624,-0.062l0.306,-1.226l0.389,-0.082l-0.184,-0.899l0.122,-1.38Z" style="fill:#ecd6b6;fill-rule:nonzero;"/><path d="M245.031,8.603l-4.865,0.062c-0.163,0 -0.296,-0.133 -0.306,-0.297l0,-0.153c0,-0.164 0.133,-0.296 0.296,-0.307l4.865,-0.061c0.163,0 0.296,0.133 0.306,0.296l0,0.154c0,0.173 -0.133,0.306 -0.296,0.306Z" style="fill:#522247;fill-rule:nonzero;"/><path d="M242.977,5.568l-0.849,0.01c-0.899,0.011 -1.624,0.757 -1.614,1.656l0.01,0.674l4.129,-0.051l-0.011,-0.674c-0.01,-0.899 -0.756,-1.625 -1.665,-1.615Z" style="fill:#602853;fill-rule:nonzero;"/><path d="M243.334,11.465l-1.318,0.112c0.419,0.348 1.288,0.051 1.288,0.051l0.03,-0.163Z" style="fill:#e2c290;fill-rule:nonzero;"/><ellipse cx="243.968" cy="9.298" rx="0.419" ry="0.634" style="fill:#2c1226;"/><ellipse cx="243.988" cy="9.298" rx="0.347" ry="0.583" style="fill:url(#_Linear4);"/><path d="M242.312,9.411l1.257,-0.154l0.021,0.184l-1.257,0.041l-0.021,-0.071Z" style="fill:#2c1226;fill-rule:nonzero;"/><path d="M244.356,9.176l0.143,-0.021l0.021,0.113l-0.153,0.081l-0.011,-0.173Z" style="fill:#2c1226;fill-rule:nonzero;"/><path d="M237.632,25.619l-3.373,11.282l-3.893,7.777l1.839,1.431l5.018,-8.094l5.508,-12.396l-5.099,0Z" style="fill:#be9f71;fill-rule:nonzero;"/><path d="M232.205,46.109l1.513,3.189l-4.895,-3.751l1.543,-0.869l1.839,1.431Z" style="fill:#3d1934;fill-rule:nonzero;"/><path d="M233.718,49.298l-4.895,-3.751l-0.358,0.46l4.885,3.761l0.368,-0.47Z" style="fill:#f1f2f2;fill-rule:nonzero;"/><path d="M243.672,13.08c0.439,0.091 0.746,0.49 0.715,0.95c-0.204,2.565 0.766,6.101 2.994,8.308l-0.94,0.409c-2.473,-3.28 -2.626,-7.225 -2.606,-8.564c0,-0.225 -0.163,-0.409 -0.388,-0.439l0.225,-0.664Z" style="fill:#3d1934;fill-rule:nonzero;"/><path d="M243.672,13.08l-2.903,-0.501l-3.004,-0.573c-0.44,1.125 0.46,1.421 0.613,1.789c0.163,0.368 -0.266,1.236 -0.041,1.594c0.225,0.358 1.022,0.613 0.879,1.094c-0.143,0.48 -1.206,4.363 -2.412,10.71l6.142,0c-0.276,-3.853 -0.061,-12.162 0.726,-14.113Z" style="fill:#3d1934;fill-rule:nonzero;"/><path d="M242.956,27.193l3.904,8.676l-6.04,6.622l-1.369,-1.216l4.221,-5.886l-6.868,-8.196l6.152,0Z" style="fill:#e2c290;fill-rule:nonzero;"/><path d="M240.82,42.491l1.186,3.884l-4.231,-4.497l1.676,-0.603l1.369,1.216Z" style="fill:#3d1934;fill-rule:nonzero;"/><path d="M242.006,46.375l-4.231,-4.497l-0.429,0.399l4.22,4.496l0.44,-0.398Z" style="fill:#f1f2f2;fill-rule:nonzero;"/><path d="M236.549,26.672l1.665,2.626l0.47,1.41l-0.786,1.697c2.095,-0.317 2.606,-2.187 1.277,-3.628l-1.277,-2.739l-1.349,0.634Z" style="fill:#ecd6b6;fill-rule:nonzero;"/><path d="M236.784,22.87c0.408,-0.603 5.385,-7.144 3.546,-7.747c-1.707,-0.562 -4.619,5.253 -5.345,6.796c-0.685,1.462 2.504,6.899 2.504,6.899l1.604,-1.002c0,0 -2.023,-3.955 -2.309,-4.946Z" style="fill:#602853;fill-rule:nonzero;"/><path d="M138.365,27.05l-1.002,2.943l-0.807,1.247l-1.819,0.46c1.563,1.43 3.341,0.654 3.617,-1.288l1.329,-2.719l-1.318,-0.643Z" style="fill:#ecd6b6;fill-rule:nonzero;"/><path d="M141.635,23.647c0.49,-0.542 6.704,-5.407 4.956,-6.275c-1.614,-0.808 -5.672,3.658 -6.602,5.079c-0.889,1.349 -2.207,5.488 -2.667,6.714l1.594,0.675c0.501,-1.002 2.29,-5.713 2.719,-6.193Z" style="fill:#602853;fill-rule:nonzero;"/><path d="M145.488,12.446c0.276,-0.225 0.725,-0.082 0.848,0.317l0.133,0.715l0.296,-0.419l0.102,-0.848l0.542,-0.399l0,-0.46l1.196,-0.214l0.03,-0.399l-0.521,-1.195l-2.054,-0.052l-0.971,0.419l-0.439,1.574l-0.082,0.511l1.042,2.32l0.429,-0.889c-0.429,-0.123 -0.827,-0.756 -0.551,-0.981Z" style="fill:#3d1934;fill-rule:nonzero;"/><path d="M148.605,11.138l-1.196,0.214l0,0.46l-0.542,0.399l-0.102,0.848l-0.296,0.419l-0.133,-0.715c-0.123,-0.399 -0.572,-0.542 -0.848,-0.317c-0.276,0.225 0.122,0.858 0.551,0.971l-0.429,0.889l-0.991,1.829l2.371,0.409l0.358,-1.758l0.623,-0.061l0.307,-1.226l0.388,-0.082l-0.184,-0.9l0.123,-1.379Z" style="fill:#ecd6b6;fill-rule:nonzero;"/><path d="M149.044,11.935l-4.864,0.061c-0.164,0 -0.297,-0.133 -0.307,-0.296l0,-0.153c0,-0.164 0.133,-0.297 0.296,-0.307l4.865,-0.061c0.163,0 0.296,0.133 0.306,0.296l0,0.153c0,0.164 -0.132,0.297 -0.296,0.307Z" style="fill:#522247;fill-rule:nonzero;"/><path d="M146.99,8.9l-0.848,0.01c-0.9,0.01 -1.625,0.756 -1.615,1.655l0.01,0.675l4.129,-0.051l-0.01,-0.675c-0.021,-0.909 -0.757,-1.625 -1.666,-1.614Z" style="fill:#602853;fill-rule:nonzero;"/><path d="M147.348,14.786l-1.319,0.113c0.419,0.347 1.288,0.051 1.288,0.051l0.031,-0.164Z" style="fill:#e2c290;fill-rule:nonzero;"/><ellipse cx="147.981" cy="12.63" rx="0.419" ry="0.634" style="fill:#2c1226;"/><ellipse cx="148.002" cy="12.63" rx="0.347" ry="0.583" style="fill:url(#_Linear5);"/><path d="M146.326,12.742l1.257,-0.163l0.02,0.184l-1.257,0.051l-0.02,-0.072Z" style="fill:#2c1226;fill-rule:nonzero;"/><path d="M148.37,12.497l0.143,-0.02l0.02,0.122l-0.153,0.082l-0.01,-0.184Z" style="fill:#2c1226;fill-rule:nonzero;"/><path d="M146.908,30.524l5.028,7.409l3.659,8.34l-1.267,1.696l-4.906,-8.022l-7.859,-9.423l5.345,0Z" style="fill:#be9f71;fill-rule:nonzero;"/><path d="M141.645,28.94l-1.819,9.229l-6.919,4.752l1.216,2.319l8.779,-5.406l3.843,-10.894l-5.1,0Z" style="fill:#e2c290;fill-rule:nonzero;"/><path d="M134.123,45.24l0.052,3.526l-2.893,-5.437l1.768,-0.153l1.073,2.064Z" style="fill:#3d1934;fill-rule:nonzero;"/><path d="M134.175,48.766l-2.893,-5.437l-0.511,0.266l2.882,5.447l0.522,-0.276Z" style="fill:#f1f2f2;fill-rule:nonzero;"/><path d="M155.595,46.273l3.822,-1.38l-4.272,4.456l-0.695,-1.646l1.145,-1.43Z" style="fill:#3d1934;fill-rule:nonzero;"/><path d="M159.417,44.893l-4.272,4.456l0.419,0.398l4.272,-4.445l-0.419,-0.409Z" style="fill:#f1f2f2;fill-rule:nonzero;"/><path d="M147.685,16.411c0.439,0.092 0.746,0.491 0.715,0.951c-0.204,2.565 0.767,6.101 2.995,8.308l-0.941,0.409c-2.473,-3.281 -2.626,-7.225 -2.606,-8.564c0,-0.225 -0.163,-0.409 -0.388,-0.44l0.225,-0.664Z" style="fill:#3d1934;fill-rule:nonzero;"/><path d="M147.685,16.411l-2.903,-0.501l-3.004,-0.572c-0.44,1.124 0.46,1.421 0.613,1.788c0.164,0.368 -0.266,1.237 -0.041,1.595c0.225,0.357 1.022,0.613 0.879,1.093c-0.143,0.481 -1.206,4.364 -2.412,10.71l6.142,0c-0.276,-3.852 -0.061,-12.161 0.726,-14.113Z" style="fill:#3d1934;fill-rule:nonzero;"/><path d="M150.516,29.584l1.982,2.391l0.644,1.339l-0.562,1.789c2.034,-0.583 2.299,-2.504 0.797,-3.761l-1.625,-2.555l-1.236,0.797Z" style="fill:#ecd6b6;fill-rule:nonzero;"/><path d="M149.33,25.016c-0.204,-0.705 -2.769,-7.828 -4.415,-6.806c-1.533,0.95 1.809,6.039 2.535,7.572c0.684,1.462 3.515,4.753 4.323,5.795l1.41,-1.002c-0.593,-0.96 -3.669,-4.946 -3.853,-5.559Z" style="fill:#602853;fill-rule:nonzero;"/><path d="M170.883,28.439l-0.5,3.066l-0.583,1.36l-1.717,0.746c1.778,1.144 3.403,0.092 3.352,-1.871l0.859,-2.902l-1.411,-0.399Z" style="fill:#ecd6b6;fill-rule:nonzero;"/><path d="M173.408,25.302c0.388,-0.613 6.601,-5.835 4.741,-6.408c-1.727,-0.531 -5.876,3.935 -6.561,5.499c-0.654,1.471 -1.124,5.017 -1.379,6.305l1.686,0.399c0.337,-1.073 1.175,-5.253 1.513,-5.795Z" style="fill:#602853;fill-rule:nonzero;"/><path d="M177.618,13.458c0.276,-0.225 0.726,-0.082 0.848,0.316l0.133,0.716l0.296,-0.419l0.103,-0.848l0.541,-0.399l0,-0.46l1.196,-0.214l0.031,-0.399l-0.522,-1.196l-2.054,-0.051l-0.971,0.419l-0.439,1.574l-0.082,0.511l1.043,2.32l0.429,-0.889c-0.429,-0.123 -0.828,-0.757 -0.552,-0.981Z" style="fill:#3d1934;fill-rule:nonzero;"/><path d="M180.725,12.139l-1.196,0.215l0,0.46l-0.542,0.398l-0.102,0.849l-0.296,0.419l-0.133,-0.716c-0.123,-0.398 -0.572,-0.541 -0.848,-0.317c-0.276,0.225 0.122,0.859 0.552,0.971l-0.43,0.889l-0.991,1.83l2.371,0.408l0.358,-1.757l0.623,-0.062l0.307,-1.226l0.388,-0.082l-0.184,-0.899l0.123,-1.38Z" style="fill:#ecd6b6;fill-rule:nonzero;"/><path d="M181.164,12.936l-4.864,0.062c-0.164,0 -0.297,-0.133 -0.307,-0.297l0,-0.153c0,-0.163 0.133,-0.296 0.296,-0.306l4.865,-0.062c0.163,0 0.296,0.133 0.307,0.297l0,0.153c0,0.174 -0.133,0.306 -0.297,0.306Z" style="fill:#522247;fill-rule:nonzero;"/><path d="M179.12,9.911l-0.848,0.011c-0.899,0.01 -1.625,0.756 -1.615,1.655l0.011,0.675l4.128,-0.051l-0.01,-0.675c-0.02,-0.909 -0.766,-1.625 -1.666,-1.615Z" style="fill:#602853;fill-rule:nonzero;"/><path d="M179.468,15.798l-1.319,0.112c0.419,0.348 1.288,0.051 1.288,0.051l0.031,-0.163Z" style="fill:#e2c290;fill-rule:nonzero;"/><ellipse cx="180.101" cy="13.631" rx="0.419" ry="0.634" style="fill:#2c1226;"/><ellipse cx="180.122" cy="13.631" rx="0.347" ry="0.583" style="fill:url(#_Linear6);"/><path d="M178.456,13.754l1.257,-0.164l0.02,0.184l-1.267,0.052l-0.01,-0.072Z" style="fill:#2c1226;fill-rule:nonzero;"/><path d="M180.5,13.509l0.143,-0.021l0.02,0.113l-0.163,0.092l0,-0.184Z" style="fill:#2c1226;fill-rule:nonzero;"/><path d="M179.028,31.536l5.304,7.43l-2.003,8.4l-2.258,0.225l0.879,-7.409l-7.256,-8.646l5.334,0Z" style="fill:#be9f71;fill-rule:nonzero;"/><path d="M173.765,29.952l-2.963,9.29l-5.979,3.771l-0.521,2.534l9.392,-4.476l5.171,-11.119l-5.1,0Z" style="fill:#e2c290;fill-rule:nonzero;"/><path d="M164.302,45.547l-2.238,2.718l1.308,-6.019l1.451,1.032l-0.521,2.269Z" style="fill:#3d1934;fill-rule:nonzero;"/><path d="M162.064,48.265l1.308,-6.019l-0.562,-0.133l-1.318,6.02l0.572,0.132Z" style="fill:#f1f2f2;fill-rule:nonzero;"/><path d="M182.329,47.366l3.638,1.819l-6.172,-0.03l0.715,-1.636l1.819,-0.153Z" style="fill:#3d1934;fill-rule:nonzero;"/><path d="M185.967,49.185l-6.172,-0.03l-0.01,0.572l6.172,0.051l0.01,-0.593Z" style="fill:#f1f2f2;fill-rule:nonzero;"/><path d="M179.815,17.423c0.44,0.092 0.746,0.49 0.716,0.95c-0.205,2.565 0.766,6.101 2.994,8.309l-0.94,0.409c-2.473,-3.281 -2.627,-7.226 -2.606,-8.564c0,-0.225 -0.164,-0.409 -0.389,-0.44l0.225,-0.664Z" style="fill:#3d1934;fill-rule:nonzero;"/><path d="M179.815,17.423l-2.902,-0.501l-3.005,-0.572c-0.439,1.124 0.46,1.42 0.613,1.788c0.164,0.368 -0.265,1.237 -0.04,1.594c0.224,0.358 1.022,0.614 0.878,1.094c-0.143,0.48 -1.205,4.364 -2.411,10.71l6.142,0c-0.276,-3.853 -0.062,-12.161 0.725,-14.113Z" style="fill:#3d1934;fill-rule:nonzero;"/><path d="M182.38,30.81l2.238,2.157l0.787,1.257l-0.357,1.839c1.952,-0.807 2.003,-2.749 0.368,-3.822l-1.901,-2.361l-1.135,0.93Z" style="fill:#ecd6b6;fill-rule:nonzero;"/><path d="M180.776,26.6c-0.205,-0.705 -2.085,-8.4 -3.741,-7.379c-1.532,0.951 1.247,6.521 1.973,8.064c0.685,1.461 4.077,4.271 4.895,5.304l1.41,-1.002c-0.592,-0.961 -4.353,-4.374 -4.537,-4.987Z" style="fill:#602853;fill-rule:nonzero;"/><path d="M52.999,30.259l2.064,2.319l0.685,1.319l-0.501,1.798c2.013,-0.654 2.218,-2.575 0.664,-3.781l-1.706,-2.504l-1.206,0.849Z" style="fill:#ecd6b6;fill-rule:nonzero;"/><path d="M51.895,25.517c-0.102,-0.726 -1.605,-8.145 -3.393,-7.369c-1.656,0.726 0.92,6.234 1.41,7.859c0.47,1.543 3.107,4.395 4.231,5.887l1.329,-0.951c-1.216,-1.706 -3.485,-4.803 -3.577,-5.426Z" style="fill:#602853;fill-rule:nonzero;"/><path d="M49.575,13.12c0.286,-0.214 0.726,-0.04 0.828,0.358l0.092,0.726l0.317,-0.399l0.153,-0.848l0.562,-0.368l0.02,-0.46l1.206,-0.153l0.062,-0.399l-0.45,-1.226l-2.054,-0.164l-1.002,0.368l-0.521,1.564l-0.102,0.501l0.91,2.371l0.48,-0.869c-0.429,-0.133 -0.787,-0.787 -0.501,-1.002Z" style="fill:#3d1934;fill-rule:nonzero;"/><path d="M52.764,11.986l-1.206,0.153l-0.021,0.46l-0.562,0.368l-0.153,0.848l-0.317,0.399l-0.092,-0.726c-0.102,-0.398 -0.542,-0.572 -0.828,-0.357c-0.286,0.214 0.072,0.868 0.491,1.001l-0.48,0.869l-1.094,1.768l2.34,0.531l0.46,-1.727l0.624,-0.02l0.378,-1.206l0.388,-0.062l-0.133,-0.909l0.205,-1.39Z" style="fill:#ecd6b6;fill-rule:nonzero;"/><path d="M53.152,12.804l-4.865,-0.205c-0.163,-0.01 -0.296,-0.143 -0.286,-0.306l0.01,-0.154c0.011,-0.163 0.144,-0.296 0.307,-0.286l4.865,0.205c0.163,0.01 0.296,0.143 0.286,0.306l-0.011,0.153c0,0.164 -0.143,0.297 -0.306,0.287Z" style="fill:#522247;fill-rule:nonzero;"/><path d="M51.272,9.666l-0.849,-0.041c-0.899,-0.041 -1.665,0.665 -1.706,1.564l-0.031,0.674l4.118,0.174l0.031,-0.674c0.041,-0.9 -0.654,-1.656 -1.563,-1.697Z" style="fill:#602853;fill-rule:nonzero;"/><path d="M51.302,15.563l-1.328,0.041c0.398,0.368 1.277,0.122 1.277,0.122l0.051,-0.163Z" style="fill:#e2c290;fill-rule:nonzero;"/><path d="M52.085,12.805c0.23,0.013 0.402,0.307 0.383,0.656c-0.019,0.349 -0.223,0.622 -0.454,0.61c-0.23,-0.013 -0.402,-0.307 -0.383,-0.656c0.019,-0.349 0.223,-0.622 0.454,-0.61Z" style="fill:#2c1226;"/><path d="M52.112,12.857c0.192,0.011 0.333,0.28 0.315,0.601c-0.018,0.321 -0.188,0.573 -0.379,0.562c-0.192,-0.01 -0.333,-0.28 -0.315,-0.601c0.018,-0.321 0.188,-0.573 0.379,-0.562Z" style="fill:url(#_Linear7);"/><path d="M50.393,13.468l1.267,-0.092l0.01,0.184l-1.257,-0.021l-0.02,-0.071Z" style="fill:#2c1226;fill-rule:nonzero;"/><path d="M52.447,13.335l0.143,-0.01l0.02,0.112l-0.163,0.082l0,-0.184Z" style="fill:#2c1226;fill-rule:nonzero;"/><path d="M50.679,31.291l-6.132,10.26l-8.86,3.322l0.184,-2.034l6.366,-2.739l3.158,-9.106l5.284,0.297Z" style="fill:#be9f71;fill-rule:nonzero;"/><path d="M45.671,30.994l7.277,9.27l-0.92,7.695l2.381,0.133l1.461,-8.636l-5.099,-9.739l-5.1,1.277Z" style="fill:#e2c290;fill-rule:nonzero;"/><path d="M54.409,48.092l3.066,1.747l-6.163,-0.276l0.777,-1.594l2.32,0.123Z" style="fill:#3d1934;fill-rule:nonzero;"/><path d="M57.475,49.839l-6.163,-0.276l-0.03,0.583l6.162,0.286l0.031,-0.593Z" style="fill:#f1f2f2;fill-rule:nonzero;"/><path d="M35.768,44.75l-2.309,3.342l0.899,-6.101l1.513,0.94l-0.103,1.819Z" style="fill:#3d1934;fill-rule:nonzero;"/><path d="M33.459,48.092l0.899,-6.101l-0.582,-0.092l-0.91,6.101l0.593,0.092Z" style="fill:#f1f2f2;fill-rule:nonzero;"/><path d="M51.558,17.198c0.439,0.112 0.725,0.531 0.664,0.981c-0.348,2.545 0.429,6.132 2.534,8.462l-0.97,0.358c-2.29,-3.414 -2.218,-7.359 -2.136,-8.697c0.01,-0.225 -0.143,-0.419 -0.358,-0.46l0.266,-0.644Z" style="fill:#3d1934;fill-rule:nonzero;"/><path d="M51.558,17.198l-2.872,-0.654l-2.964,-0.736c-0.5,1.094 0.378,1.441 0.521,1.819c0.144,0.378 -0.337,1.227 -0.132,1.594c0.204,0.368 0.981,0.665 0.817,1.145c-0.163,0.47 -1.666,5.529 -1.523,10.639l6.521,0.337c-0.982,-3.945 -1.268,-12.233 -0.368,-14.144Z" style="fill:#3d1934;fill-rule:nonzero;"/><path d="M42.411,29.431l-0.613,3.045l-0.634,1.339l-1.737,0.685c1.727,1.216 3.393,0.214 3.424,-1.738l0.97,-2.871l-1.41,-0.46Z" style="fill:#ecd6b6;fill-rule:nonzero;"/><path d="M45.538,25.701c0.511,-0.522 5.539,-6.183 3.843,-7.144c-1.574,-0.889 -4.425,4.487 -5.427,5.866c-0.95,1.298 -1.635,5.13 -2.156,6.919l1.553,0.49c0.634,-2.013 1.738,-5.682 2.187,-6.131Z" style="fill:#602853;fill-rule:nonzero;"/><path d="M22.031,28.664l2.32,2.075l0.838,1.226l-0.297,1.85c1.922,-0.879 1.901,-2.821 0.235,-3.832l-1.982,-2.29l-1.114,0.971Z" style="fill:#ecd6b6;fill-rule:nonzero;"/><path d="M20.396,24.076c-0.184,-0.705 -2.524,-7.91 -4.211,-6.929c-1.553,0.909 1.625,6.091 2.3,7.644c0.644,1.482 3.587,4.016 4.874,5.365l1.217,-1.093c-1.411,-1.564 -4.017,-4.374 -4.18,-4.987Z" style="fill:#602853;fill-rule:nonzero;"/><path d="M17.432,11.863c0.286,-0.214 0.726,-0.04 0.828,0.358l0.092,0.726l0.317,-0.399l0.153,-0.848l0.562,-0.368l0.02,-0.46l1.206,-0.153l0.062,-0.399l-0.45,-1.226l-2.054,-0.164l-1.002,0.368l-0.521,1.554l-0.102,0.5l0.91,2.371l0.48,-0.868c-0.429,-0.123 -0.787,-0.777 -0.501,-0.992Z" style="fill:#3d1934;fill-rule:nonzero;"/><path d="M20.621,10.719l-1.206,0.153l-0.021,0.46l-0.562,0.368l-0.153,0.848l-0.317,0.399l-0.092,-0.726c-0.102,-0.398 -0.542,-0.572 -0.828,-0.358c-0.286,0.215 0.072,0.869 0.491,1.002l-0.48,0.869l-1.094,1.768l2.34,0.531l0.46,-1.727l0.624,-0.021l0.378,-1.205l0.388,-0.062l-0.133,-0.909l0.205,-1.39Z" style="fill:#ecd6b6;fill-rule:nonzero;"/><path d="M21.009,11.547l-4.865,-0.205c-0.163,-0.01 -0.296,-0.143 -0.286,-0.306l0.011,-0.154c0.01,-0.163 0.143,-0.296 0.306,-0.286l4.865,0.205c0.163,0.01 0.296,0.143 0.286,0.306l-0.01,0.153c0,0.164 -0.144,0.287 -0.307,0.287Z" style="fill:#522247;fill-rule:nonzero;"/><path d="M19.129,8.415l-0.849,-0.041c-0.899,-0.041 -1.665,0.664 -1.706,1.563l-0.031,0.675l4.118,0.174l0.031,-0.675c0.041,-0.889 -0.654,-1.655 -1.563,-1.696Z" style="fill:#602853;fill-rule:nonzero;"/><path d="M19.159,14.306l-1.328,0.041c0.398,0.368 1.277,0.122 1.277,0.122l0.051,-0.163Z" style="fill:#e2c290;fill-rule:nonzero;"/><path d="M19.951,11.549c0.231,0.013 0.403,0.307 0.383,0.656c-0.019,0.349 -0.222,0.622 -0.453,0.609c-0.231,-0.013 -0.403,-0.306 -0.383,-0.656c0.019,-0.349 0.222,-0.622 0.453,-0.609Z" style="fill:#2c1226;"/><path d="M19.969,11.6c0.191,0.01 0.332,0.28 0.314,0.601c-0.017,0.321 -0.187,0.573 -0.379,0.562c-0.191,-0.01 -0.332,-0.28 -0.314,-0.601c0.017,-0.321 0.187,-0.573 0.379,-0.562Z" style="fill:url(#_Linear8);"/><path d="M18.25,12.201l1.267,-0.082l0.01,0.184l-1.257,-0.031l-0.02,-0.071Z" style="fill:#3d1934;fill-rule:nonzero;"/><path d="M20.304,12.068l0.143,0l0.02,0.112l-0.163,0.072l0,-0.184Z" style="fill:#3d1934;fill-rule:nonzero;"/><path d="M18.536,30.024l-4.742,9.31l-7.849,5.906l-1.001,-1.757l6.724,-5.55l1.584,-8.196l5.284,0.287Z" style="fill:#be9f71;fill-rule:nonzero;"/><path d="M13.528,29.737l7.716,9.505l4.783,8.635l1.737,-1.533l-4.057,-8.676l-5.079,-9.218l-5.1,1.287Z" style="fill:#e2c290;fill-rule:nonzero;"/><path d="M27.764,46.344l3.413,-0.909l-4.588,4.128l-0.562,-1.686l1.737,-1.533Z" style="fill:#3d1934;fill-rule:nonzero;"/><path d="M31.177,45.435l-4.588,4.128l0.388,0.44l4.589,-4.119l-0.389,-0.449Z" style="fill:#f1f2f2;fill-rule:nonzero;"/><path d="M5.945,45.24l-0.255,4.058l-2.371,-5.693l1.768,0.021l0.858,1.614Z" style="fill:#3d1934;fill-rule:nonzero;"/><path d="M5.69,49.298l-2.371,-5.693l-0.542,0.225l2.361,5.692l0.552,-0.224Z" style="fill:#f1f2f2;fill-rule:nonzero;"/><path d="M19.415,15.941c0.439,0.112 0.725,0.531 0.664,0.981c-0.347,2.545 0.429,6.132 2.534,8.462l-0.97,0.358c-2.29,-3.414 -2.218,-7.359 -2.136,-8.697c0.01,-0.225 -0.143,-0.419 -0.358,-0.46l0.266,-0.644Z" style="fill:#3d1934;fill-rule:nonzero;"/><path d="M19.415,15.941l-2.872,-0.654l-2.964,-0.736c-0.5,1.094 0.378,1.441 0.522,1.819c0.143,0.378 -0.338,1.227 -0.133,1.594c0.204,0.368 0.981,0.665 0.817,1.145c-0.163,0.47 -1.666,5.529 -1.522,10.639l6.52,0.337c-0.981,-3.955 -1.268,-12.243 -0.368,-14.144Z" style="fill:#3d1934;fill-rule:nonzero;"/><path d="M9.236,27.673l-0.613,3.045l-0.634,1.339l-1.737,0.685c1.727,1.216 3.393,0.215 3.423,-1.737l0.971,-2.872l-1.41,-0.46Z" style="fill:#ecd6b6;fill-rule:nonzero;"/><path d="M12.353,23.943c0.511,-0.521 6.285,-5.202 4.589,-6.162c-1.574,-0.89 -5.172,3.505 -6.173,4.884c-0.95,1.298 -1.635,5.131 -2.156,6.919l1.553,0.491c0.644,-2.003 1.737,-5.682 2.187,-6.132Z" style="fill:#602853;fill-rule:nonzero;"/><defs><linearGradient id="_Linear1" x1="0" y1="0" x2="1" y2="0" gradientUnits="userSpaceOnUse" gradientTransform="matrix(3.06828e-16,5.01089,-5.01089,3.06828e-16,114.695,8.62048)"><stop offset="0" style="stop-color:#977890;stop-opacity:1"/><stop offset="1" style="stop-color:#f0386b;stop-opacity:1"/></linearGradient><linearGradient id="_Linear2" x1="0" y1="0" x2="1" y2="0" gradientUnits="userSpaceOnUse" gradientTransform="matrix(3.06828e-16,5.01089,-5.01089,3.06828e-16,114.695,8.62048)"><stop offset="0" style="stop-color:#977890;stop-opacity:1"/><stop offset="1" style="stop-color:#f0386b;stop-opacity:1"/></linearGradient><linearGradient id="_Linear3" x1="0" y1="0" x2="1" y2="0" gradientUnits="userSpaceOnUse" gradientTransform="matrix(3.06828e-16,5.01089,-5.01089,3.06828e-16,114.695,8.62048)"><stop offset="0" style="stop-color:#977890;stop-opacity:1"/><stop offset="1" style="stop-color:#f0386b;stop-opacity:1"/></linearGradient><linearGradient id="_Linear4" x1="0" y1="0" x2="1" y2="0" gradientUnits="userSpaceOnUse" gradientTransform="matrix(3.06828e-16,5.01089,-5.01089,3.06828e-16,114.695,8.62048)"><stop offset="0" style="stop-color:#977890;stop-opacity:1"/><stop offset="1" style="stop-color:#f0386b;stop-opacity:1"/></linearGradient><linearGradient id="_Linear5" x1="0" y1="0" x2="1" y2="0" gradientUnits="userSpaceOnUse" gradientTransform="matrix(3.06828e-16,5.01089,-5.01089,3.06828e-16,114.695,8.62048)"><stop offset="0" style="stop-color:#977890;stop-opacity:1"/><stop offset="1" style="stop-color:#f0386b;stop-opacity:1"/></linearGradient><linearGradient id="_Linear6" x1="0" y1="0" x2="1" y2="0" gradientUnits="userSpaceOnUse" gradientTransform="matrix(3.06828e-16,5.01089,-5.01089,3.06828e-16,114.695,8.62048)"><stop offset="0" style="stop-color:#977890;stop-opacity:1"/><stop offset="1" style="stop-color:#f0386b;stop-opacity:1"/></linearGradient><linearGradient id="_Linear7" x1="0" y1="0" x2="1" y2="0" gradientUnits="userSpaceOnUse" gradientTransform="matrix(2.77556e-16,5.01089,-5.01089,3.33067e-16,114.695,8.62048)"><stop offset="0" style="stop-color:#977890;stop-opacity:1"/><stop offset="1" style="stop-color:#f0386b;stop-opacity:1"/></linearGradient><linearGradient id="_Linear8" x1="0" y1="0" x2="1" y2="0" gradientUnits="userSpaceOnUse" gradientTransform="matrix(2.77556e-16,5.01089,-5.01089,3.33067e-16,114.695,8.62048)"><stop offset="0" style="stop-color:#977890;stop-opacity:1"/><stop offset="1" style="stop-color:#f0386b;stop-opacity:1"/></linearGradient></defs></svg>