<?xml version="1.0" encoding="UTF-8" standalone="no"?><!DOCTYPE svg PUBLIC "-//W3C//DTD SVG 1.1//EN" "http://www.w3.org/Graphics/SVG/1.1/DTD/svg11.dtd"><svg width="100%" height="100%" viewBox="0 0 818 176" version="1.1" xmlns="http://www.w3.org/2000/svg" xmlns:xlink="http://www.w3.org/1999/xlink" xml:space="preserve" xmlns:serif="http://www.serif.com/" style="fill-rule:evenodd;clip-rule:evenodd;stroke-linejoin:round;stroke-miterlimit:2;"><rect id="scene-front" x="0" y="-0.145" width="818" height="176" style="fill:none;"/><clipPath id="_clip1"><rect x="0" y="-0.145" width="818" height="176"/></clipPath><g clip-path="url(#_clip1)"><path d="M0,176.621l0.107,-22.452l19.561,0.089l0.075,-15.774l10.774,0.049l0.04,-8.494l10.327,0.049l-0.037,7.889l18.407,0.089l-0.032,6.672l9.878,0.049l-0.066,13.956l12.572,0.06l0.075,-15.777l14.367,0.069l0.173,-36.407l10.776,0.049l0.029,-6.067l11.224,0.055l-0.035,7.28l4.489,0.023l0.07,-14.564l13.917,0.067l-0.037,7.888l7.633,0.038l-0.211,43.691l8.083,0.037l-0.04,8.497l9.877,0.046l0.309,-64.322l11.422,0.055l0.037,-7.283l26.288,0.127l-0.034,7.283l13.468,0.063l-0.3,62.503l53.878,0.26l0.43,-89.812l6.287,0.032l0.04,-8.497l14.814,0.072l-0.032,7.281l9.875,0.049l-0.426,89.2l9.428,0.046l0.383,-80.098l6.288,0.028l0.04,-9.101l18.41,0.086l-0.032,6.675l7.633,0.038l-0.23,47.939l8.08,0.04l0.049,-9.71l8.529,0.04l-0.046,9.71l7.633,0.035l0.075,-15.777l42.652,0.205l-0.231,47.939l13.471,0.063l0.153,-32.159l41.306,0.199l-0.141,29.124l21.55,0.104l0.257,-53.398l7.183,0.032l0.044,-9.102l15.715,0.078l-0.04,8.493l16.612,0.081l-0.043,9.102l14.364,0.069l-0.222,46.723l9.428,0.046l0.162,-33.981l5.837,0.029l0.041,-8.496l16.612,0.08l-0.041,8.494l10.325,0.052l-0.127,26.697l37.713,0.182l0.484,-100.732l4.489,0.02l0.118,-24.876l7.187,0.032l0.072,-15.169l41.753,0.199l-0.069,14.563l12.572,0.061l-0.637,132.286l13.021,0.063l0.291,-60.681l6.285,0.029l0.086,-17.596l8.979,0.041l-0.04,8.496l10.773,0.052l-0.028,6.07l9.431,0.043l-0.309,64.325l7.631,0.034l0.063,-13.35l10.777,0.052l0.323,-67.357l4.489,0.023l4.293,-5.744l15.488,0.072l-0.031,6.978l7.183,0.038l-0.363,75.242l36.817,0.175l-0.068,31.886l-817.932,0Z" style="fill:#352947;fill-rule:nonzero;"/></g></svg>