<?xml version="1.0" encoding="UTF-8" standalone="no"?><!DOCTYPE svg PUBLIC "-//W3C//DTD SVG 1.1//EN" "http://www.w3.org/Graphics/SVG/1.1/DTD/svg11.dtd"><svg width="100%" height="100%" viewBox="0 0 817 426" version="1.1" xmlns="http://www.w3.org/2000/svg" xmlns:xlink="http://www.w3.org/1999/xlink" xml:space="preserve" xmlns:serif="http://www.serif.com/" style="fill-rule:evenodd;clip-rule:evenodd;stroke-linejoin:round;stroke-miterlimit:2;"><rect id="scene-back" x="0" y="0" width="817.241" height="426" style="fill:none;"/><clipPath id="_clip1"><rect x="0" y="0" width="817.241" height="426"/></clipPath><g clip-path="url(#_clip1)"><path d="M0,427.677l0,-114.06l11.285,0l0,-33.841l68.934,0l0,-28.831l42.615,0l0,32.588l23.822,0l0,-32.588l25.061,0l0,-71.446l11.284,0l0,-16.295l27.573,0l0,16.295l11.285,0l0,62.672l10.032,0l0,53.273l22.556,0l0,-95.887l15.042,0l0,-73.957l10.026,0l0,-47.631l7.521,0l0,-36.346l7.521,0l0,-38.857l11.278,0l0,37.605l8.78,0l0,30.077l7.514,0l0,57.663l10.026,0l0,75.203l11.285,0l0,107.798l18.799,0l0,-25.067l40.109,0l0,12.53l15.042,0l0,-87.74l11.285,0l0,-31.336l35.094,0l0,30.084l7.834,7.834l0,51.074l13.469,0l0,-16.294l35.1,0l0,17.547l21.311,0l0,16.301l22.563,0l0,-22.563l16.294,0l0,-48.257l91.504,0l0,48.257l16.288,0l0,-48.257l77.714,0l0,19.425l21.304,0l0,78.967l30.091,0l0,114.06l-817.241,0Z" style="fill:#271c37;fill-rule:nonzero;"/></g></svg>