<?xml version="1.0" encoding="UTF-8" standalone="no"?>
<!DOCTYPE svg PUBLIC "-//W3C//DTD SVG 1.1//EN" "http://www.w3.org/Graphics/SVG/1.1/DTD/svg11.dtd">
<svg width="100%" height="100%" viewBox="0 0 24 56" version="1.1" xmlns="http://www.w3.org/2000/svg" xmlns:xlink="http://www.w3.org/1999/xlink" xml:space="preserve" xmlns:serif="http://www.serif.com/" style="fill-rule:evenodd;clip-rule:evenodd;stroke-linejoin:round;stroke-miterlimit:2;">
    <g transform="matrix(1,0,0,1,-269.402,0)">
        <g id="toilet-paper" transform="matrix(1,0,0,1,269.402,0)">
            <rect x="0" y="0" width="24" height="56" style="fill:none;"/>
            <clipPath id="_clip1">
                <rect x="0" y="0" width="24" height="56"/>
            </clipPath>
            <g clip-path="url(#_clip1)">
                <g transform="matrix(0.0833088,0,0,0.0833088,49.6776,41.7913)">
                    <g transform="matrix(12.0035,0,0,12.0035,-596.307,-526.144)">
                        <g transform="matrix(1.09091,0,0,1,-207.343,7)">
                            <path d="M212.064,8C212.126,0.12 190.085,0.1 190.064,8L190.064,32C190.037,40.261 212.055,40.063 212.064,32L212.064,8Z" style="fill:url(#_Linear2);"/>
                            <clipPath id="_clip3">
                                <path d="M212.064,8C212.126,0.12 190.085,0.1 190.064,8L190.064,32C190.037,40.261 212.055,40.063 212.064,32L212.064,8Z"/>
                            </clipPath>
                            <g clip-path="url(#_clip3)">
                                <g transform="matrix(1,0,0,1,0,-23.4029)">
                                    <path d="M212.064,8C212.126,0.12 190.085,0.1 190.064,8L190.064,32C190.037,40.261 212.055,40.063 212.064,32L212.064,8Z" style="fill:url(#_Linear4);"/>
                                </g>
                                <g transform="matrix(0.852783,-0.0681813,0,1,31.2194,14.4588)">
                                    <path d="M212.064,8.306C212.035,12.589 209.36,19.735 190.064,16L190.064,40C201.72,42.117 211.879,36.725 212.064,32L212.064,8.306Z" style="fill-opacity:0.05;"/>
                                </g>
                            </g>
                        </g>
                        <g transform="matrix(0.772727,-0.181818,0,1,-139.868,45.5571)">
                            <path d="M212.064,8.306C212.035,12.589 209.36,19.735 190.064,16L190.064,40C201.72,42.117 211.879,36.725 212.064,32L212.064,8.306Z" style="fill:url(#_Linear5);"/>
                        </g>
                    </g>
                    <g transform="matrix(10.6698,-8.88178e-16,8.88178e-16,12.0035,-2602.92,-516.47)">
                        <ellipse cx="201.564" cy="14.5" rx="4.5" ry="1.5" style="fill:url(#_Linear6);"/>
                    </g>
                </g>
            </g>
        </g>
    </g>
    <defs>
        <linearGradient id="_Linear2" x1="0" y1="0" x2="1" y2="0" gradientUnits="userSpaceOnUse" gradientTransform="matrix(22,8.88178e-16,0,24,190.064,20.7341)"><stop offset="0" style="stop-color:rgb(151,120,144);stop-opacity:1"/><stop offset="0.19" style="stop-color:rgb(194,169,185);stop-opacity:1"/><stop offset="0.41" style="stop-color:rgb(236,218,225);stop-opacity:1"/><stop offset="1" style="stop-color:rgb(255,240,243);stop-opacity:1"/></linearGradient>
        <linearGradient id="_Linear4" x1="0" y1="0" x2="1" y2="0" gradientUnits="userSpaceOnUse" gradientTransform="matrix(8.88178e-16,-26.9627,24.7158,2.66454e-15,201.085,39.3374)"><stop offset="0" style="stop-color:rgb(255,240,243);stop-opacity:1"/><stop offset="1" style="stop-color:rgb(166,142,160);stop-opacity:1"/></linearGradient>
        <linearGradient id="_Linear5" x1="0" y1="0" x2="1" y2="0" gradientUnits="userSpaceOnUse" gradientTransform="matrix(20.7061,3.76474,8.88178e-16,16.0001,191.358,24.699)"><stop offset="0" style="stop-color:rgb(255,240,243);stop-opacity:1"/><stop offset="0.51" style="stop-color:rgb(233,216,223);stop-opacity:1"/><stop offset="1" style="stop-color:rgb(166,142,160);stop-opacity:1"/></linearGradient>
        <linearGradient id="_Linear6" x1="0" y1="0" x2="1" y2="0" gradientUnits="userSpaceOnUse" gradientTransform="matrix(-6.40437e-05,-3,3.375,-5.69277e-05,201.564,16)"><stop offset="0" style="stop-color:rgb(85,41,75);stop-opacity:1"/><stop offset="1" style="stop-color:rgb(166,142,160);stop-opacity:1"/></linearGradient>
    </defs>
</svg>
