<?xml version="1.0" encoding="UTF-8" standalone="no"?><!DOCTYPE svg PUBLIC "-//W3C//DTD SVG 1.1//EN" "http://www.w3.org/Graphics/SVG/1.1/DTD/svg11.dtd"><svg width="100%" height="100%" viewBox="0 0 24 56" version="1.1" xmlns="http://www.w3.org/2000/svg" xmlns:xlink="http://www.w3.org/1999/xlink" xml:space="preserve" xmlns:serif="http://www.serif.com/" style="fill-rule:evenodd;clip-rule:evenodd;stroke-linejoin:round;stroke-miterlimit:2;"><rect id="toilet-paper" x="0" y="0" width="24" height="56" style="fill:none;"/><clipPath id="_clip1"><rect x="0" y="0" width="24" height="56"/></clipPath><g clip-path="url(#_clip1)"><g><g><path d="M24,12.959c0.067,-7.88 -23.977,-7.9 -24,0l0,24c-0.029,8.261 23.99,8.063 24,0l0,-24Z" style="fill:url(#_Linear2);"/><clipPath id="_clip3"><path d="M24,12.959c0.067,-7.88 -23.977,-7.9 -24,0l0,24c-0.029,8.261 23.99,8.063 24,0l0,-24Z"/></clipPath><g clip-path="url(#_clip3)"><path d="M24,-10.444c0.067,-7.88 -23.977,-7.9 -24,0l0,24c-0.029,8.261 23.99,8.063 24,0l0,-24Z" style="fill:url(#_Linear4);"/><path d="M24,13.265c-0.027,4.285 -2.516,11.613 -20.467,9.194l0,24c10.843,1.322 20.295,-4.762 20.467,-9.5l0,-23.694Z" style="fill-opacity:0.05;"/></g><path d="M24,13.265c-0.022,4.288 -2.09,11.921 -17,11.694l0,24c9.006,-0.003 16.857,-7.241 17,-12l0,-23.694Z" style="fill:url(#_Linear5);"/></g><ellipse cx="12" cy="13.265" rx="4" ry="1.5" style="fill:url(#_Linear6);"/></g></g><defs><linearGradient id="_Linear2" x1="0" y1="0" x2="1" y2="0" gradientUnits="userSpaceOnUse" gradientTransform="matrix(24,8.88178e-16,0,24,-1.13687e-13,25.693)"><stop offset="0" style="stop-color:#977890;stop-opacity:1"/><stop offset="0.19" style="stop-color:#c2a9b9;stop-opacity:1"/><stop offset="0.41" style="stop-color:#ecdae1;stop-opacity:1"/><stop offset="1" style="stop-color:#fff0f3;stop-opacity:1"/></linearGradient><linearGradient id="_Linear4" x1="0" y1="0" x2="1" y2="0" gradientUnits="userSpaceOnUse" gradientTransform="matrix(9.68922e-16,-26.9627,26.9627,2.66454e-15,12.0225,20.8933)"><stop offset="0" style="stop-color:#fff0f3;stop-opacity:1"/><stop offset="1" style="stop-color:#a68ea0;stop-opacity:1"/></linearGradient><linearGradient id="_Linear5" x1="0" y1="0" x2="1" y2="0" gradientUnits="userSpaceOnUse" gradientTransform="matrix(16.0001,-3.10862e-15,6.8632e-16,16.0001,8.00003,33.4226)"><stop offset="0" style="stop-color:#fff0f3;stop-opacity:1"/><stop offset="0.51" style="stop-color:#e9d8df;stop-opacity:1"/><stop offset="1" style="stop-color:#a68ea0;stop-opacity:1"/></linearGradient><linearGradient id="_Linear6" x1="0" y1="0" x2="1" y2="0" gradientUnits="userSpaceOnUse" gradientTransform="matrix(-5.69277e-05,-3,3,-5.69277e-05,12.0001,14.7648)"><stop offset="0" style="stop-color:#55294b;stop-opacity:1"/><stop offset="1" style="stop-color:#a68ea0;stop-opacity:1"/></linearGradient></defs></svg>