<?xml version="1.0" encoding="UTF-8" standalone="no"?>
<!DOCTYPE svg PUBLIC "-//W3C//DTD SVG 1.1//EN" "http://www.w3.org/Graphics/SVG/1.1/DTD/svg11.dtd">
<svg width="100%" height="100%" viewBox="0 0 56 56" version="1.1" xmlns="http://www.w3.org/2000/svg" xmlns:xlink="http://www.w3.org/1999/xlink" xml:space="preserve" xmlns:serif="http://www.serif.com/" style="fill-rule:evenodd;clip-rule:evenodd;stroke-linejoin:round;stroke-miterlimit:2;">
    <g transform="matrix(1,0,0,1,-344,0)">
        <g id="virus" transform="matrix(0.333333,0,0,1,229.066,0)">
            <rect x="344.801" y="0" width="168" height="56" style="fill:none;"/>
            <g transform="matrix(0.65646,0,0,0.21882,-672.935,2.84217e-14)">
                <g transform="matrix(0.499842,0,0,0.499842,1550.34,0)">
                    <path d="M422.863,451.174C422.716,451.321 422.57,451.467 422.426,451.61C422.282,451.754 422.141,451.895 422.003,452.033C422.307,451.73 422.591,451.446 422.863,451.174Z" style="fill:url(#_Radial1);fill-rule:nonzero;"/>
                </g>
                <g transform="matrix(0.499842,0,0,0.499842,1550.34,0)">
                    <path d="M426.138,447.898L425.437,448.599C425.712,448.325 425.936,448.101 426.138,447.898Z" style="fill:url(#_Radial2);fill-rule:nonzero;"/>
                </g>
                <g transform="matrix(0.499842,0,0,0.499842,1550.34,0)">
                    <path d="M420.873,453.164L420.293,453.744C420.489,453.548 420.686,453.35 420.873,453.164Z" style="fill:url(#_Radial3);fill-rule:nonzero;"/>
                </g>
                <g transform="matrix(0.499842,0,0,0.499842,1550.34,0)">
                    <path d="M471.539,227.517L471.539,235.768L422.756,235.768C418.994,204.575 406.659,175.985 388.17,152.439L422.715,117.894L428.551,123.73C447.426,142.605 476.049,114.004 457.161,95.12L416.88,54.839C397.98,35.939 369.342,64.524 388.27,83.449L394.106,89.285L359.561,123.83C336.015,105.34 307.424,93.005 276.232,89.244L276.232,40.461L284.483,40.461C311.216,40.461 311.244,0 284.483,0L227.519,0C200.786,0 200.758,40.461 227.519,40.461L235.77,40.461L235.77,89.244C204.577,93.006 175.987,105.341 152.441,123.83L117.895,89.285L123.731,83.449C142.636,64.548 114.045,35.916 95.121,54.839L54.84,95.12C35.935,114.022 64.603,142.579 83.45,123.73L89.286,117.894L123.831,152.439C105.341,175.985 93.006,204.576 89.245,235.768L40.461,235.768L40.461,227.517C40.461,200.784 0,200.756 0,227.517L0,284.481C0,311.214 40.461,311.242 40.461,284.481L40.461,276.23L89.244,276.23C93.006,307.423 105.341,336.013 123.83,359.559L89.285,394.104L83.449,388.268C64.548,369.369 35.91,397.953 54.839,416.878L95.12,457.159C114.02,476.059 142.661,447.477 123.73,428.549L117.894,422.713L152.439,388.168C175.985,406.658 204.575,418.993 235.768,422.754L235.768,471.537L227.517,471.537C200.784,471.537 200.756,511.998 227.517,511.998L284.481,511.998C311.214,511.998 311.242,471.537 284.481,471.537L276.23,471.537L276.23,422.754C307.423,418.992 336.013,406.657 359.559,388.168L394.104,422.713L388.268,428.549C369.363,447.451 398.031,476.006 416.878,457.159L457.158,416.879C476.063,397.978 447.472,369.346 428.548,388.269L422.712,394.105L388.167,359.56C406.657,336.014 418.992,307.424 422.753,276.231L471.536,276.231L471.536,284.482C471.536,311.215 511.997,311.243 511.997,284.482L511.997,227.518C512,200.784 471.539,200.757 471.539,227.517Z" style="fill:rgb(240,56,107);fill-rule:nonzero;"/>
                </g>
                <g transform="matrix(1.05119,0,0,1.05119,-85.9199,-6.55082)">
                    <circle cx="1678.3" cy="127.959" r="82.121" style="fill:rgb(255,83,118);"/>
                </g>
            </g>
        </g>
    </g>
    <defs>
        <radialGradient id="_Radial1" cx="0" cy="0" r="1" gradientUnits="userSpaceOnUse" gradientTransform="matrix(2.84217e-14,255.999,-255.999,2.84217e-14,256,255.999)"><stop offset="0" style="stop-color:rgb(235,44,89);stop-opacity:1"/><stop offset="1" style="stop-color:rgb(42,20,143);stop-opacity:1"/></radialGradient>
        <radialGradient id="_Radial2" cx="0" cy="0" r="1" gradientUnits="userSpaceOnUse" gradientTransform="matrix(2.84217e-14,255.999,-255.999,2.84217e-14,256,255.999)"><stop offset="0" style="stop-color:rgb(235,44,89);stop-opacity:1"/><stop offset="1" style="stop-color:rgb(42,20,143);stop-opacity:1"/></radialGradient>
        <radialGradient id="_Radial3" cx="0" cy="0" r="1" gradientUnits="userSpaceOnUse" gradientTransform="matrix(2.84217e-14,255.999,-255.999,2.84217e-14,256,255.999)"><stop offset="0" style="stop-color:rgb(235,44,89);stop-opacity:1"/><stop offset="1" style="stop-color:rgb(42,20,143);stop-opacity:1"/></radialGradient>
    </defs>
</svg>
