<?xml version="1.0" encoding="UTF-8" standalone="no"?><!DOCTYPE svg PUBLIC "-//W3C//DTD SVG 1.1//EN" "http://www.w3.org/Graphics/SVG/1.1/DTD/svg11.dtd"><svg width="100%" height="100%" viewBox="0 0 56 56" version="1.1" xmlns="http://www.w3.org/2000/svg" xmlns:xlink="http://www.w3.org/1999/xlink" xml:space="preserve" xmlns:serif="http://www.serif.com/" style="fill-rule:evenodd;clip-rule:evenodd;stroke-linejoin:round;stroke-miterlimit:2;"><rect id="virus" x="0" y="0" width="56" height="56" style="fill:none;"/><g><path d="M46.251,49.347c-0.016,0.016 -0.032,0.032 -0.048,0.048c-0.016,0.016 -0.031,0.031 -0.046,0.046c0.033,-0.033 0.064,-0.064 0.094,-0.094Z" style="fill:url(#_Radial1);fill-rule:nonzero;"/><path d="M46.609,48.989l-0.077,0.077c0.03,-0.03 0.055,-0.055 0.077,-0.077Z" style="fill:url(#_Radial2);fill-rule:nonzero;"/><path d="M46.033,49.565l-0.063,0.063c0.021,-0.021 0.043,-0.043 0.063,-0.063Z" style="fill:url(#_Radial3);fill-rule:nonzero;"/><path d="M51.575,24.885l0,0.902l-5.336,0c-0.411,-3.412 -1.76,-6.539 -3.783,-9.114l3.779,-3.778l0.638,0.638c2.064,2.064 5.195,-1.064 3.129,-3.129l-4.406,-4.406c-2.067,-2.067 -5.199,1.059 -3.129,3.129l0.639,0.639l-3.779,3.778c-2.575,-2.022 -5.702,-3.372 -9.114,-3.783l0,-5.336l0.903,0c2.923,0 2.927,-4.425 0,-4.425l-6.231,0c-2.924,0 -2.927,4.425 0,4.425l0.902,0l0,5.336c-3.411,0.412 -6.538,1.761 -9.114,3.783l-3.778,-3.778l0.638,-0.639c2.068,-2.067 -1.059,-5.199 -3.129,-3.129l-4.406,4.406c-2.068,2.067 1.068,5.191 3.129,3.129l0.639,-0.638l3.778,3.778c-2.022,2.575 -3.371,5.703 -3.783,9.114l-5.336,0l0,-0.902c0,-2.924 -4.425,-2.927 -4.425,0l0,6.23c0,2.924 4.425,2.927 4.425,0l0,-0.902l5.336,0c0.412,3.412 1.761,6.539 3.783,9.114l-3.778,3.778l-0.639,-0.638c-2.067,-2.067 -5.199,1.059 -3.129,3.129l4.406,4.406c2.067,2.067 5.2,-1.059 3.129,-3.129l-0.638,-0.639l3.778,-3.778c2.575,2.022 5.703,3.372 9.114,3.783l0,5.336l-0.902,0c-2.924,0 -2.927,4.425 0,4.425l6.23,0c2.924,0 2.927,-4.425 0,-4.425l-0.902,0l0,-5.336c3.412,-0.412 6.539,-1.761 9.114,-3.783l3.778,3.778l-0.638,0.639c-2.068,2.067 1.068,5.19 3.129,3.129l4.406,-4.406c2.068,-2.067 -1.06,-5.199 -3.129,-3.129l-0.639,0.638l-3.778,-3.778c2.022,-2.575 3.371,-5.702 3.783,-9.114l5.336,0l0,0.902c0,2.924 4.425,2.927 4.425,0l0,-6.23c0,-2.924 -4.425,-2.927 -4.425,0Z" style="fill:#f0386b;fill-rule:nonzero;"/><circle cx="28" cy="28" r="18.89" style="fill:url(#_Radial4);"/></g><defs><radialGradient id="_Radial1" cx="0" cy="0" r="1" gradientUnits="userSpaceOnUse" gradientTransform="matrix(3.10864e-15,28,-28,3.10864e-15,28.0002,28)"><stop offset="0" style="stop-color:#eb2c59;stop-opacity:1"/><stop offset="1" style="stop-color:#2a148f;stop-opacity:1"/></radialGradient><radialGradient id="_Radial2" cx="0" cy="0" r="1" gradientUnits="userSpaceOnUse" gradientTransform="matrix(3.10864e-15,28,-28,3.10864e-15,28.0002,28)"><stop offset="0" style="stop-color:#eb2c59;stop-opacity:1"/><stop offset="1" style="stop-color:#2a148f;stop-opacity:1"/></radialGradient><radialGradient id="_Radial3" cx="0" cy="0" r="1" gradientUnits="userSpaceOnUse" gradientTransform="matrix(3.10864e-15,28,-28,3.10864e-15,28.0002,28)"><stop offset="0" style="stop-color:#eb2c59;stop-opacity:1"/><stop offset="1" style="stop-color:#2a148f;stop-opacity:1"/></radialGradient><radialGradient id="_Radial4" cx="0" cy="0" r="1" gradientUnits="userSpaceOnUse" gradientTransform="matrix(11.6986,14.8277,-14.8277,11.6986,28,28)"><stop offset="0" style="stop-color:#ff8fa7;stop-opacity:1"/><stop offset="0.55" style="stop-color:#f7718e;stop-opacity:1"/><stop offset="1" style="stop-color:#db002d;stop-opacity:1"/></radialGradient></defs></svg>